<svg width="273" height="246" viewBox="0 0 273 246" fill="none" xmlns="http://www.w3.org/2000/svg">
<mask id="mask0_286_329" style="mask-type:luminance" maskUnits="userSpaceOnUse" x="0" y="0" width="559" height="246">
<path d="M558.004 0H0.387207V246H558.004V0Z" fill="white"/>
</mask>
<g mask="url(#mask0_286_329)">
<path d="M493.917 0.427093L448.998 -10.5062L404.079 0.427093L359.16 -10.5062L314.24 0.427093L269.321 -10.5062L224.402 0.427093L179.483 -10.5062L134.564 0.427093L89.6447 -10.5062L44.7255 0.427093L-0.193672 -10.5062L-45.1128 0.427093L-90.2256 -10.5917L-89.6447 -11.1042L-45.1128 -0.256242L-0.193672 -11.1896L44.7255 -0.256242L89.6447 -11.1896L134.564 -0.256242L179.483 -11.1896L224.402 -0.256242L269.321 -11.1896L314.24 -0.256242L359.16 -11.1896L404.079 -0.256242L448.998 -11.1896L493.917 -0.256242L538.642 -11.1896L583.562 -0.256242L628.287 -11.1042L628.868 -10.5917L583.562 0.427093L538.642 -10.5062L493.917 0.427093Z" fill="#4EBE9D" fill-opacity="0.3"/>
<path d="M493.917 11.1896L448.998 0.25627L404.079 11.1896L359.16 0.25627L314.24 11.1896L269.321 0.25627L224.402 11.1896L179.483 0.25627L134.564 11.1896L89.6447 0.25627L44.7255 11.1896L-0.193672 0.25627L-45.1128 11.1896L-90.2256 0.170853L-89.6447 -0.341646L-45.1128 10.5063L-0.193672 -0.427063L44.7255 10.5063L89.6447 -0.427063L134.564 10.5063L179.483 -0.427063L224.402 10.5063L269.321 -0.427063L314.24 10.5063L359.16 -0.427063L404.079 10.5063L448.998 -0.427063L493.917 10.5063L538.642 -0.427063L583.562 10.5063L628.287 -0.341646L628.868 0.170853L583.562 11.1896L538.642 0.25627L493.917 11.1896Z" fill="#4EBE9D" fill-opacity="0.3"/>
<path d="M314.24 21.8667L269.321 10.9333L224.402 21.8667L179.483 10.9333L134.564 21.8667L89.6447 10.9333L44.7255 21.8667L-0.193672 10.9333L-45.1128 21.8667L-90.2256 10.9333L-89.6447 10.4208L-45.1128 21.2688L-0.193672 10.3354L44.7255 21.2688L89.6447 10.3354L134.564 21.2688L179.483 10.3354L224.402 21.2688L269.321 10.3354L314.24 21.2688L359.16 10.3354L404.079 21.2688L448.998 10.3354L493.917 21.2688L538.642 10.3354L583.562 21.2688L628.287 10.4208L628.868 10.9333L583.562 21.8667L538.642 10.9333L493.917 21.8667L448.998 10.9333L404.079 21.8667L359.16 10.9333L314.24 21.8667Z" fill="#4EBE9D" fill-opacity="0.3"/>
<path d="M493.917 32.6292L448.998 21.6958L404.079 32.6292L359.16 21.6958L314.24 32.6292L269.321 21.6958L224.402 32.6292L179.483 21.6958L134.564 32.6292L89.6447 21.6958L44.7255 32.6292L-0.193672 21.6958L-45.1128 32.6292L-90.2256 21.6104L-89.6447 21.1833L-45.1128 31.9458L-0.193672 21.0979L44.7255 31.9458L89.6447 21.0979L134.564 31.9458L179.483 21.0979L224.402 31.9458L269.321 21.0979L314.24 31.9458L359.16 21.0979L404.079 31.9458L448.998 21.0979L493.917 31.9458L538.642 21.0979L583.562 31.9458L628.287 21.1833L628.868 21.6104L583.562 32.6292L538.642 21.6958L493.917 32.6292Z" fill="#4EBE9D" fill-opacity="0.3"/>
<path d="M314.24 43.3917L269.321 32.4584L224.402 43.3917L179.483 32.4584L134.564 43.3917L89.6447 32.4584L44.7255 43.3917L-0.193672 32.4584L-45.1128 43.3917L-90.2256 32.3729L-89.6447 31.8604L-45.1128 42.7084L-0.193672 31.775L44.7255 42.7084L89.6447 31.775L134.564 42.7084L179.483 31.775L224.402 42.7084L269.321 31.775L314.24 42.7084L359.16 31.775L404.079 42.7084L448.998 31.775L493.917 42.7084L538.642 31.775L583.562 42.7084L628.287 31.8604L628.868 32.3729L583.562 43.3917L538.642 32.4584L493.917 43.3917L448.998 32.4584L404.079 43.3917L359.16 32.4584L314.24 43.3917Z" fill="#4EBE9D" fill-opacity="0.3"/>
<path d="M493.917 54.1541L448.998 43.2208L404.079 54.1541L359.16 43.2208L314.24 54.1541L269.321 43.2208L224.402 54.1541L179.483 43.2208L134.564 54.1541L89.6447 43.2208L44.7255 54.1541L-0.193672 43.2208L-45.1128 54.1541L-90.2256 43.1354L-89.6447 42.6229L-45.1128 53.4708L-0.193672 42.5375L44.7255 53.4708L89.6447 42.5375L134.564 53.4708L179.483 42.5375L224.402 53.4708L269.321 42.5375L314.24 53.4708L359.16 42.5375L404.079 53.4708L448.998 42.5375L493.917 53.4708L538.642 42.5375L583.562 53.4708L628.287 42.6229L628.868 43.1354L583.562 54.1541L538.642 43.2208L493.917 54.1541Z" fill="#4EBE9D" fill-opacity="0.3"/>
<path d="M314.24 64.8312L269.321 53.8979L224.402 64.8312L179.483 53.8979L134.564 64.8312L89.6447 53.8979L44.7255 64.8312L-0.193672 53.8979L-45.1128 64.8312L-90.2256 53.8979L-89.6447 53.3854L-45.1128 64.2333L-0.193672 53.3L44.7255 64.2333L89.6447 53.3L134.564 64.2333L179.483 53.3L224.402 64.2333L269.321 53.3L314.24 64.2333L359.16 53.3L404.079 64.2333L448.998 53.3L493.917 64.2333L538.642 53.3L583.562 64.2333L628.287 53.3854L628.868 53.8979L583.562 64.8312L538.642 53.8979L493.917 64.8312L448.998 53.8979L404.079 64.8312L359.16 53.8979L314.24 64.8312Z" fill="#4EBE9D" fill-opacity="0.3"/>
<path d="M493.917 75.5938L448.998 64.6604L404.079 75.5938L359.16 64.6604L314.24 75.5938L269.321 64.6604L224.402 75.5938L179.483 64.6604L134.564 75.5938L89.6447 64.6604L44.7255 75.5938L-0.193672 64.6604L-45.1128 75.5938L-90.2256 64.575L-89.6447 64.0625L-45.1128 74.9104L-0.193672 64.0625L44.7255 74.9104L89.6447 64.0625L134.564 74.9104L179.483 64.0625L224.402 74.9104L269.321 64.0625L314.24 74.9104L359.16 64.0625L404.079 74.9104L448.998 64.0625L493.917 74.9104L538.642 64.0625L583.562 74.9104L628.287 64.0625L628.868 64.575L583.562 75.5938L538.642 64.6604L493.917 75.5938Z" fill="#4EBE9D" fill-opacity="0.3"/>
<path d="M493.917 86.3562L448.998 75.4229L404.079 86.3562L359.16 75.4229L314.24 86.3562L269.321 75.4229L224.402 86.3562L179.483 75.4229L134.564 86.3562L89.6447 75.4229L44.7255 86.3562L-0.193672 75.4229L-45.1128 86.3562L-90.2256 75.3375L-89.6447 74.825L-45.1128 85.6729L-0.193672 74.7396L44.7255 85.6729L89.6447 74.7396L134.564 85.6729L179.483 74.7396L224.402 85.6729L269.321 74.7396L314.24 85.6729L359.16 74.7396L404.079 85.6729L448.998 74.7396L493.917 85.6729L538.642 74.7396L583.562 85.6729L628.287 74.825L628.868 75.3375L583.562 86.3562L538.642 75.4229L493.917 86.3562Z" fill="#4EBE9D" fill-opacity="0.3"/>
<path d="M314.24 97.0333L269.321 86.1854L224.402 97.0333L179.483 86.1854L134.564 97.0333L89.6447 86.1854L44.7255 97.0333L-0.193672 86.1854L-45.1128 97.0333L-90.2256 86.1L-89.6447 85.5875L-45.1128 96.4354L-0.193672 85.5021L44.7255 96.4354L89.6447 85.5021L134.564 96.4354L179.483 85.5021L224.402 96.4354L269.321 85.5021L314.24 96.4354L359.16 85.5021L404.079 96.4354L448.998 85.5021L493.917 96.4354L538.642 85.5021L583.562 96.4354L628.287 85.5875L628.868 86.1L583.562 97.0333L538.642 86.1854L493.917 97.0333L448.998 86.1854L404.079 97.0333L359.16 86.1854L314.24 97.0333Z" fill="#4EBE9D" fill-opacity="0.3"/>
<path d="M493.917 107.796L448.998 96.8625L404.079 107.796L359.16 96.8625L314.24 107.796L269.321 96.8625L224.402 107.796L179.483 96.8625L134.564 107.796L89.6447 96.8625L44.7255 107.796L-0.193672 96.8625L-45.1128 107.796L-90.2256 96.8625L-89.6447 96.35L-45.1128 107.198L-0.193672 96.2646L44.7255 107.198L89.6447 96.2646L134.564 107.198L179.483 96.2646L224.402 107.198L269.321 96.2646L314.24 107.198L359.16 96.2646L404.079 107.198L448.998 96.2646L493.917 107.198L538.642 96.2646L583.562 107.198L628.287 96.35L628.868 96.8625L583.562 107.796L538.642 96.8625L493.917 107.796Z" fill="#4EBE9D" fill-opacity="0.3"/>
<path d="M314.24 118.558L269.321 107.625L224.402 118.558L179.483 107.625L134.564 118.558L89.6447 107.625L44.7255 118.558L-0.193672 107.625L-45.1128 118.558L-90.2256 107.54L-89.6447 107.027L-45.1128 117.875L-0.193672 107.027L44.7255 117.875L89.6447 107.027L134.564 117.875L179.483 107.027L224.402 117.875L269.321 107.027L314.24 117.875L359.16 107.027L404.079 117.875L448.998 107.027L493.917 117.875L538.642 107.027L583.562 117.875L628.287 107.027L628.868 107.54L583.562 118.558L538.642 107.625L493.917 118.558L448.998 107.625L404.079 118.558L359.16 107.625L314.24 118.558Z" fill="#4EBE9D" fill-opacity="0.3"/>
<path d="M493.917 129.321L448.998 118.387L404.079 129.321L359.16 118.387L314.24 129.321L269.321 118.387L224.402 129.321L179.483 118.387L134.564 129.321L89.6447 118.387L44.7255 129.321L-0.193672 118.387L-45.1128 129.321L-90.2256 118.302L-89.6447 117.79L-45.1128 128.637L-0.193672 117.704L44.7255 128.637L89.6447 117.704L134.564 128.637L179.483 117.704L224.402 128.637L269.321 117.704L314.24 128.637L359.16 117.704L404.079 128.637L448.998 117.704L493.917 128.637L538.642 117.704L583.562 128.637L628.287 117.79L628.868 118.302L583.562 129.321L538.642 118.387L493.917 129.321Z" fill="#4EBE9D" fill-opacity="0.3"/>
<path d="M314.24 139.998L269.321 129.15L224.402 139.998L179.483 129.15L134.564 139.998L89.6447 129.15L44.7255 139.998L-0.193672 129.15L-45.1128 139.998L-90.2256 129.065L-89.6447 128.552L-45.1128 139.4L-0.193672 128.467L44.7255 139.4L89.6447 128.467L134.564 139.4L179.483 128.467L224.402 139.4L269.321 128.467L314.24 139.4L359.16 128.467L404.079 139.4L448.998 128.467L493.917 139.4L538.642 128.467L583.562 139.4L628.287 128.552L628.868 129.065L583.562 139.998L538.642 129.15L493.917 139.998L448.998 129.15L404.079 139.998L359.16 129.15L314.24 139.998Z" fill="#4EBE9D" fill-opacity="0.3"/>
<path d="M493.917 150.76L448.998 139.827L404.079 150.76L359.16 139.827L314.24 150.76L269.321 139.827L224.402 150.76L179.483 139.827L134.564 150.76L89.6447 139.827L44.7255 150.76L-0.193672 139.827L-45.1128 150.76L-90.2256 139.742L-89.6447 139.315L-45.1128 150.163L-0.193672 139.229L44.7255 150.163L89.6447 139.229L134.564 150.163L179.483 139.229L224.402 150.163L269.321 139.229L314.24 150.163L359.16 139.229L404.079 150.163L448.998 139.229L493.917 150.163L538.642 139.229L583.562 150.163L628.287 139.315L628.868 139.742L583.562 150.76L538.642 139.827L493.917 150.76Z" fill="#4EBE9D" fill-opacity="0.3"/>
<path d="M493.917 161.523L448.998 150.59L404.079 161.523L359.16 150.59L314.24 161.523L269.321 150.59L224.402 161.523L179.483 150.59L134.564 161.523L89.6447 150.59L44.7255 161.523L-0.193672 150.59L-45.1128 161.523L-90.2256 150.504L-89.6447 149.992L-45.1128 160.84L-0.193672 149.992L44.7255 160.84L89.6447 149.992L134.564 160.84L179.483 149.992L224.402 160.84L269.321 149.992L314.24 160.84L359.16 149.992L404.079 160.84L448.998 149.992L493.917 160.84L538.642 149.992L583.562 160.84L628.287 149.992L628.868 150.504L583.562 161.523L538.642 150.59L493.917 161.523Z" fill="#4EBE9D" fill-opacity="0.3"/>
<path d="M314.24 172.285L269.321 161.352L224.402 172.285L179.483 161.352L134.564 172.285L89.6447 161.352L44.7255 172.285L-0.193672 161.352L-45.1128 172.285L-90.2256 161.267L-89.6447 160.754L-45.1128 171.602L-0.193672 160.669L44.7255 171.602L89.6447 160.669L134.564 171.602L179.483 160.669L224.402 171.602L269.321 160.669L314.24 171.602L359.16 160.669L404.079 171.602L448.998 160.669L493.917 171.602L538.642 160.669L583.562 171.602L628.287 160.754L628.868 161.267L583.562 172.285L538.642 161.352L493.917 172.285L448.998 161.352L404.079 172.285L359.16 161.352L314.24 172.285Z" fill="#4EBE9D" fill-opacity="0.3"/>
<path d="M493.917 182.963L448.998 172.115L404.079 182.963L359.16 172.115L314.24 182.963L269.321 172.115L224.402 182.963L179.483 172.115L134.564 182.963L89.6447 172.115L44.7255 182.963L-0.193672 172.115L-45.1128 182.963L-90.2256 172.029L-89.6447 171.517L-45.1128 182.365L-0.193672 171.431L44.7255 182.365L89.6447 171.431L134.564 182.365L179.483 171.431L224.402 182.365L269.321 171.431L314.24 182.365L359.16 171.431L404.079 182.365L448.998 171.431L493.917 182.365L538.642 171.431L583.562 182.365L628.287 171.517L628.868 172.029L583.562 182.963L538.642 172.115L493.917 182.963Z" fill="#4EBE9D" fill-opacity="0.3"/>
<path d="M314.24 193.725L269.321 182.792L224.402 193.725L179.483 182.792L134.564 193.725L89.6447 182.792L44.7255 193.725L-0.193672 182.792L-45.1128 193.725L-90.2256 182.706L-89.6447 182.279L-45.1128 193.127L-0.193672 182.194L44.7255 193.127L89.6447 182.194L134.564 193.127L179.483 182.194L224.402 193.127L269.321 182.194L314.24 193.127L359.16 182.194L404.079 193.127L448.998 182.194L493.917 193.127L538.642 182.194L583.562 193.127L628.287 182.279L628.868 182.706L583.562 193.725L538.642 182.792L493.917 193.725L448.998 182.792L404.079 193.725L359.16 182.792L314.24 193.725Z" fill="#4EBE9D" fill-opacity="0.3"/>
<path d="M493.917 204.488L448.998 193.554L404.079 204.488L359.16 193.554L314.24 204.488L269.321 193.554L224.402 204.488L179.483 193.554L134.564 204.488L89.6447 193.554L44.7255 204.488L-0.193672 193.554L-45.1128 204.488L-90.2256 193.469L-89.6447 192.956L-45.1128 203.804L-0.193672 192.871L44.7255 203.804L89.6447 192.871L134.564 203.804L179.483 192.871L224.402 203.804L269.321 192.871L314.24 203.804L359.16 192.871L404.079 203.804L448.998 192.871L493.917 203.804L538.642 192.871L583.562 203.804L628.287 192.956L628.868 193.469L583.562 204.488L538.642 193.554L493.917 204.488Z" fill="#4EBE9D" fill-opacity="0.3"/>
<path d="M493.917 215.25L448.998 204.317L404.079 215.25L359.16 204.317L314.24 215.25L269.321 204.317L224.402 215.25L179.483 204.317L134.564 215.25L89.6447 204.317L44.7255 215.25L-0.193672 204.317L-45.1128 215.25L-90.2256 204.231L-89.6447 203.719L-45.1128 214.567L-0.193672 203.633L44.7255 214.567L89.6447 203.633L134.564 214.567L179.483 203.633L224.402 214.567L269.321 203.633L314.24 214.567L359.16 203.633L404.079 214.567L448.998 203.633L493.917 214.567L538.642 203.633L583.562 214.567L628.287 203.719L628.868 204.231L583.562 215.25L538.642 204.317L493.917 215.25Z" fill="#4EBE9D" fill-opacity="0.3"/>
<path d="M314.24 225.927L269.321 215.079L224.402 225.927L179.483 215.079L134.564 225.927L89.6447 215.079L44.7255 225.927L-0.193672 215.079L-45.1128 225.927L-90.2256 214.994L-89.6447 214.481L-45.1128 225.329L-0.193672 214.396L44.7255 225.329L89.6447 214.396L134.564 225.329L179.483 214.396L224.402 225.329L269.321 214.396L314.24 225.329L359.16 214.396L404.079 225.329L448.998 214.396L493.917 225.329L538.642 214.396L583.562 225.329L628.287 214.481L628.868 214.994L583.562 225.927L538.642 215.079L493.917 225.927L448.998 215.079L404.079 225.927L359.16 215.079L314.24 225.927Z" fill="#4EBE9D" fill-opacity="0.3"/>
<path d="M493.917 236.69L448.998 225.756L404.079 236.69L359.16 225.756L314.24 236.69L269.321 225.756L224.402 236.69L179.483 225.756L134.564 236.69L89.6447 225.756L44.7255 236.69L-0.193672 225.756L-45.1128 236.69L-90.2256 225.671L-89.6447 225.244L-45.1128 236.092L-0.193672 225.158L44.7255 236.092L89.6447 225.158L134.564 236.092L179.483 225.158L224.402 236.092L269.321 225.158L314.24 236.092L359.16 225.158L404.079 236.092L448.998 225.158L493.917 236.092L538.642 225.158L583.562 236.092L628.287 225.244L628.868 225.671L583.562 236.69L538.642 225.756L493.917 236.69Z" fill="#4EBE9D" fill-opacity="0.3"/>
<path d="M314.24 247.452L269.321 236.519L224.402 247.452L179.483 236.519L134.564 247.452L89.6447 236.519L44.7255 247.452L-0.193672 236.519L-45.1128 247.452L-90.2256 236.433L-89.6447 235.921L-45.1128 246.769L-0.193672 235.835L44.7255 246.769L89.6447 235.835L134.564 246.769L179.483 235.835L224.402 246.769L269.321 235.835L314.24 246.769L359.16 235.835L404.079 246.769L448.998 235.835L493.917 246.769L538.642 235.835L583.562 246.769L628.287 235.921L628.868 236.433L583.562 247.452L538.642 236.519L493.917 247.452L448.998 236.519L404.079 247.452L359.16 236.519L314.24 247.452Z" fill="#4EBE9D" fill-opacity="0.3"/>
</g>
</svg>
