<svg width="654" height="665" viewBox="0 0 654 665" fill="none" xmlns="http://www.w3.org/2000/svg">
<mask id="mask0_286_201" style="mask-type:luminance" maskUnits="userSpaceOnUse" x="0" y="-1" width="702" height="779">
<path d="M701.539 -0.000244141H0V778H701.539V-0.000244141Z" fill="white"/>
</mask>
<g mask="url(#mask0_286_201)">
<path d="M790.205 33.2266C772.423 33.2266 763.654 24.312 754.884 15.6675C746.115 7.0231 737.833 -1.35121 720.538 -1.35121C703.244 -1.35121 695.205 7.0231 686.192 15.6675C677.423 24.312 668.654 33.2266 650.872 33.2266C633.09 33.2266 624.321 24.312 615.551 15.6675C606.782 7.0231 598.5 -1.35121 581.205 -1.35121C564.154 -1.35121 555.872 7.0231 546.859 15.6675C538.09 24.312 529.32 33.2266 511.538 33.2266C493.756 33.2266 484.987 24.312 476.218 15.6675C467.449 7.0231 459.167 -1.35121 441.872 -1.35121C424.82 -1.35121 416.538 7.0231 407.526 15.6675C398.756 24.312 389.987 33.2266 372.205 33.2266C354.423 33.2266 345.654 24.312 336.885 15.6675C328.115 7.0231 319.833 -1.35121 302.782 -1.35121C285.731 -1.35121 277.449 7.0231 268.679 15.6675C259.91 24.312 251.141 33.2266 233.359 33.2266C215.577 33.2266 206.808 24.312 198.038 15.6675C189.269 7.0231 180.987 -1.35121 163.692 -1.35121C146.641 -1.35121 138.359 7.0231 129.346 15.6675C120.577 24.312 111.808 33.2266 94.0256 33.2266C76.2435 33.2266 67.4743 24.312 58.7051 15.6675C49.9358 7.0231 41.6538 -1.35121 24.6025 -1.35121C7.55122 -1.35121 -0.730836 7.0231 -9.50007 15.6675C-18.2693 24.312 -27.0385 33.2266 -44.8206 33.2266C-62.6026 33.2266 -71.3719 24.312 -80.1411 15.6675C-88.9103 7.0231 -97.1924 -1.35121 -114.244 -1.35121V-3.24219C-96.4616 -3.24219 -87.6924 5.6724 -78.9231 14.3168C-70.1539 22.9613 -61.8719 31.3356 -44.8206 31.3356C-27.7693 31.3356 -19.4872 22.9613 -10.718 14.3168C-1.94878 5.6724 6.82045 -3.24219 24.6025 -3.24219C42.3845 -3.24219 51.1538 5.6724 59.923 14.3168C68.6922 22.9613 76.9743 31.3356 94.0256 31.3356C111.077 31.3356 119.359 22.9613 128.372 14.3168C137.141 5.6724 145.91 -3.24219 163.692 -3.24219C181.474 -3.24219 190.244 5.6724 199.013 14.3168C207.782 22.9613 216.064 31.3356 233.359 31.3356C250.41 31.3356 258.692 22.9613 267.461 14.3168C276.231 5.6724 285 -3.24219 302.782 -3.24219C320.564 -3.24219 329.333 5.6724 338.103 14.3168C346.872 22.9613 355.154 31.3356 372.205 31.3356C389.256 31.3356 397.538 22.9613 406.551 14.3168C415.32 5.6724 424.09 -3.24219 441.872 -3.24219C459.654 -3.24219 468.423 5.6724 477.192 14.3168C485.961 22.9613 494.244 31.3356 511.538 31.3356C528.59 31.3356 536.872 22.9613 545.885 14.3168C554.654 5.6724 563.423 -3.24219 581.205 -3.24219C598.987 -3.24219 607.756 5.6724 616.526 14.3168C625.295 22.9613 633.577 31.3356 650.872 31.3356C667.923 31.3356 676.205 22.9613 685.218 14.3168C693.987 5.6724 702.756 -3.24219 720.538 -3.24219C738.32 -3.24219 747.09 5.6724 755.859 14.3168C764.628 22.9613 772.91 31.3356 790.205 31.3356V33.2266Z" fill="#F9F7F7" fill-opacity="0.3"/>
<path d="M790.205 67.2642C772.423 67.2642 763.654 58.3496 754.884 49.7051C746.115 41.0607 737.833 32.6864 720.538 32.6864C703.244 32.6864 695.205 41.0607 686.192 49.7051C677.423 58.3496 668.654 67.2642 650.872 67.2642C633.09 67.2642 624.321 58.3496 615.551 49.7051C606.782 41.0607 598.5 32.6864 581.205 32.6864C564.154 32.6864 555.872 41.0607 546.859 49.7051C538.09 58.3496 529.32 67.2642 511.538 67.2642C493.756 67.2642 484.987 58.3496 476.218 49.7051C467.449 41.0607 459.167 32.6864 441.872 32.6864C424.82 32.6864 416.538 41.0607 407.526 49.7051C398.756 58.3496 389.987 67.2642 372.205 67.2642C354.423 67.2642 345.654 58.3496 336.885 49.7051C328.115 41.0607 319.833 32.6864 302.782 32.6864C285.731 32.6864 277.449 41.0607 268.679 49.7051C259.91 58.3496 251.141 67.2642 233.359 67.2642C215.577 67.2642 206.808 58.3496 198.038 49.7051C189.269 41.0607 180.987 32.6864 163.692 32.6864C146.641 32.6864 138.359 41.0607 129.346 49.7051C120.577 58.3496 111.808 67.2642 94.0256 67.2642C76.2435 67.2642 67.4743 58.3496 58.7051 49.7051C49.9358 41.0607 41.6538 32.6864 24.6025 32.6864C7.55122 32.6864 -0.730836 41.0607 -9.50007 49.7051C-18.2693 58.3496 -27.0385 67.2642 -44.8206 67.2642C-62.6026 67.2642 -71.3719 58.3496 -80.1411 49.7051C-88.9103 41.0607 -97.1924 32.6864 -114.244 32.6864V30.7954C-96.4616 30.7954 -87.6924 39.71 -78.9231 48.3544C-70.1539 56.9989 -61.8719 65.3732 -44.8206 65.3732C-27.7693 65.3732 -19.4872 56.9989 -10.718 48.3544C-1.94878 39.71 6.82045 30.7954 24.6025 30.7954C42.3845 30.7954 51.1538 39.71 59.923 48.3544C68.6922 56.9989 76.9743 65.3732 94.0256 65.3732C111.077 65.3732 119.359 56.9989 128.372 48.3544C137.141 39.71 145.91 30.7954 163.692 30.7954C181.474 30.7954 190.244 39.71 199.013 48.3544C207.782 56.9989 216.064 65.3732 233.359 65.3732C250.41 65.3732 258.692 56.9989 267.461 48.3544C276.231 39.71 285 30.7954 302.782 30.7954C320.564 30.7954 329.333 39.71 338.103 48.3544C346.872 56.9989 355.154 65.3732 372.205 65.3732C389.256 65.3732 397.538 56.9989 406.551 48.3544C415.32 39.71 424.09 30.7954 441.872 30.7954C459.654 30.7954 468.423 39.71 477.192 48.3544C485.961 56.9989 494.244 65.3732 511.538 65.3732C528.59 65.3732 536.872 56.9989 545.885 48.3544C554.654 39.71 563.423 30.7954 581.205 30.7954C598.987 30.7954 607.756 39.71 616.526 48.3544C625.295 56.9989 633.577 65.3732 650.872 65.3732C667.923 65.3732 676.205 56.9989 685.218 48.3544C693.987 39.71 702.756 30.7954 720.538 30.7954C738.32 30.7954 747.09 39.71 755.859 48.3544C764.628 56.9989 772.91 65.3732 790.205 65.3732V67.2642Z" fill="#F9F7F7" fill-opacity="0.3"/>
<path d="M790.205 101.031C772.423 101.031 763.654 92.1169 754.884 83.4725C746.115 74.828 737.833 66.4537 720.538 66.4537C703.243 66.4537 695.205 74.828 686.192 83.4725C677.91 92.387 668.897 101.031 651.115 101.031C633.333 101.031 624.564 92.1169 615.795 83.4725C607.025 74.828 598.743 66.4537 581.449 66.4537C564.397 66.4537 556.115 74.828 547.102 83.4725C538.333 92.1169 529.564 101.031 511.782 101.031C494 101.031 485.23 92.1169 476.461 83.4725C467.692 74.828 459.41 66.4537 442.115 66.4537C425.064 66.4537 416.782 74.828 407.769 83.4725C399 92.1169 390.231 101.031 372.448 101.031C354.666 101.031 345.897 92.1169 337.128 83.4725C328.359 74.828 320.077 66.4537 303.025 66.4537C285.974 66.4537 277.692 74.828 268.923 83.4725C260.154 92.1169 251.384 101.031 233.602 101.031C215.82 101.031 207.051 92.1169 198.282 83.4725C189.513 74.828 181.231 66.4537 163.936 66.4537C146.884 66.4537 138.602 74.828 129.589 83.4725C120.82 92.1169 112.051 101.031 94.269 101.031C76.4869 101.031 67.7177 92.1169 58.9485 83.4725C50.1792 74.828 41.8972 66.4537 24.8459 66.4537C7.79462 66.4537 -0.487428 74.828 -9.25666 83.4725C-18.0259 92.1169 -26.7951 101.031 -44.5772 101.031C-62.3592 101.031 -71.1285 92.1169 -79.8977 83.4725C-88.6669 74.828 -96.949 66.4537 -114 66.4537V64.5627C-96.2182 64.5627 -87.449 73.4773 -78.6797 82.1218C-69.9105 90.7662 -61.6285 99.1405 -44.5772 99.1405C-27.5259 99.1405 -19.2438 90.7662 -10.4746 82.1218C-1.70538 73.4773 7.06385 64.5627 24.8459 64.5627C42.628 64.5627 51.3972 73.4773 60.1664 82.1218C68.9356 90.7662 77.2177 99.1405 94.269 99.1405C111.32 99.1405 119.602 90.7662 128.615 82.1218C137.384 73.4773 146.154 64.5627 163.936 64.5627C181.718 64.5627 190.487 73.4773 199.256 82.1218C208.025 90.7662 216.307 99.1405 233.602 99.1405C250.654 99.1405 258.936 90.7662 267.705 82.1218C276.474 73.4773 285.243 64.5627 303.025 64.5627C320.807 64.5627 329.577 73.4773 338.346 82.1218C347.115 90.7662 355.397 99.1405 372.448 99.1405C389.5 99.1405 397.782 90.7662 406.795 82.1218C415.564 73.4773 424.333 64.5627 442.115 64.5627C459.897 64.5627 468.666 73.4773 477.436 82.1218C486.205 90.7662 494.487 99.1405 511.782 99.1405C528.833 99.1405 537.115 90.7662 546.128 82.1218C554.897 73.4773 563.666 64.5627 581.449 64.5627C599.231 64.5627 608 73.4773 616.769 82.1218C625.538 90.7662 633.82 99.1405 651.115 99.1405C668.166 99.1405 676.448 90.7662 685.461 82.1218C694.23 73.4773 703 64.5627 720.782 64.5627C738.564 64.5627 747.333 73.4773 756.102 82.1218C764.871 90.7662 773.154 99.1405 790.448 99.1405V101.031H790.205Z" fill="#F9F7F7" fill-opacity="0.3"/>
<path d="M790.205 135.069C772.423 135.069 763.654 126.154 754.884 117.51C746.115 108.865 737.833 100.491 720.538 100.491C703.244 100.491 695.205 108.865 686.192 117.51C677.423 126.154 668.654 135.069 650.872 135.069C633.09 135.069 624.321 126.154 615.551 117.51C606.782 108.865 598.5 100.491 581.205 100.491C564.154 100.491 555.872 108.865 546.859 117.51C538.09 126.154 529.32 135.069 511.538 135.069C493.756 135.069 484.987 126.154 476.218 117.51C467.449 108.865 459.167 100.491 441.872 100.491C424.82 100.491 416.538 108.865 407.526 117.51C398.756 126.154 389.987 135.069 372.205 135.069C354.423 135.069 345.654 126.154 336.885 117.51C328.115 108.865 319.833 100.491 302.782 100.491C285.731 100.491 277.449 108.865 268.679 117.51C259.91 126.154 251.141 135.069 233.359 135.069C215.577 135.069 206.808 126.154 198.038 117.51C189.269 108.865 180.987 100.491 163.692 100.491C146.641 100.491 138.359 108.865 129.346 117.51C120.577 126.154 111.808 135.069 94.0256 135.069C76.2435 135.069 67.4743 126.154 58.7051 117.51C49.9358 108.865 41.6538 100.491 24.6025 100.491C7.55122 100.491 -0.730836 108.865 -9.50007 117.51C-18.2693 126.154 -27.0385 135.069 -44.8206 135.069C-62.6026 135.069 -71.3719 126.154 -80.1411 117.51C-88.9103 108.865 -97.1924 100.491 -114.244 100.491V98.6001C-96.4616 98.6001 -87.6924 107.515 -78.9231 116.159C-70.1539 124.804 -61.8719 133.178 -44.8206 133.178C-27.7693 133.178 -19.4872 124.804 -10.718 116.159C-1.94878 107.515 6.82045 98.6001 24.6025 98.6001C42.3845 98.6001 51.1538 107.515 59.923 116.159C68.6922 124.804 76.9743 133.178 94.0256 133.178C111.077 133.178 119.359 124.804 128.372 116.159C137.141 107.515 145.91 98.6001 163.692 98.6001C181.474 98.6001 190.244 107.515 199.013 116.159C207.782 124.804 216.064 133.178 233.359 133.178C250.41 133.178 258.692 124.804 267.461 116.159C276.231 107.515 285 98.6001 302.782 98.6001C320.564 98.6001 329.333 107.515 338.103 116.159C346.872 124.804 355.154 133.178 372.205 133.178C389.256 133.178 397.538 124.804 406.551 116.159C415.32 107.515 424.09 98.6001 441.872 98.6001C459.654 98.6001 468.423 107.515 477.192 116.159C485.961 124.804 494.244 133.178 511.538 133.178C528.59 133.178 536.872 124.804 545.885 116.159C554.654 107.515 563.423 98.6001 581.205 98.6001C598.987 98.6001 607.756 107.515 616.526 116.159C625.295 124.804 633.577 133.178 650.872 133.178C667.923 133.178 676.205 124.804 685.218 116.159C693.987 107.515 702.756 98.6001 720.538 98.6001C738.32 98.6001 747.09 107.515 755.859 116.159C764.628 124.804 772.91 133.178 790.205 133.178V135.069Z" fill="#F9F7F7" fill-opacity="0.3"/>
<path d="M790.205 169.107C772.423 169.107 763.654 160.192 754.884 151.548C746.115 142.903 737.833 134.529 720.538 134.529C703.244 134.529 695.205 142.903 686.192 151.548C677.423 160.192 668.654 169.107 650.872 169.107C633.09 169.107 624.321 160.192 615.551 151.548C606.782 142.903 598.5 134.529 581.205 134.529C564.154 134.529 555.872 142.903 546.859 151.548C538.09 160.192 529.32 169.107 511.538 169.107C493.756 169.107 484.987 160.192 476.218 151.548C467.449 142.903 459.167 134.529 441.872 134.529C424.82 134.529 416.538 142.903 407.526 151.548C398.756 160.192 389.987 169.107 372.205 169.107C354.423 169.107 345.654 160.192 336.885 151.548C328.115 142.903 319.833 134.529 302.782 134.529C285.731 134.529 277.449 142.903 268.679 151.548C259.91 160.192 251.141 169.107 233.359 169.107C215.577 169.107 206.808 160.192 198.038 151.548C189.269 142.903 180.987 134.529 163.692 134.529C146.641 134.529 138.359 142.903 129.346 151.548C120.577 160.192 111.808 169.107 94.0256 169.107C76.2435 169.107 67.4743 160.192 58.7051 151.548C49.9358 142.903 41.6538 134.529 24.6025 134.529C7.55122 134.529 -0.730836 142.903 -9.50007 151.548C-18.2693 160.192 -27.0385 169.107 -44.8206 169.107C-62.6026 169.107 -71.3719 160.192 -80.1411 151.548C-88.9103 142.903 -97.1924 134.529 -114.244 134.529V132.638C-96.4616 132.638 -87.6924 141.553 -78.9231 150.197C-70.1539 158.841 -61.8719 167.216 -44.8206 167.216C-27.7693 167.216 -19.4872 158.841 -10.718 150.197C-1.94878 141.553 6.82045 132.638 24.6025 132.638C42.3845 132.638 51.1538 141.553 59.923 150.197C68.6922 158.841 76.9743 167.216 94.0256 167.216C111.077 167.216 119.359 158.841 128.372 150.197C137.141 141.553 145.91 132.638 163.692 132.638C181.474 132.638 190.244 141.553 199.013 150.197C207.782 158.841 216.064 167.216 233.359 167.216C250.41 167.216 258.692 158.841 267.461 150.197C276.231 141.553 285 132.638 302.782 132.638C320.564 132.638 329.333 141.553 338.103 150.197C346.872 158.841 355.154 167.216 372.205 167.216C389.256 167.216 397.538 158.841 406.551 150.197C415.32 141.553 424.09 132.638 441.872 132.638C459.654 132.638 468.423 141.553 477.192 150.197C485.961 158.841 494.244 167.216 511.538 167.216C528.59 167.216 536.872 158.841 545.885 150.197C554.654 141.553 563.423 132.638 581.205 132.638C598.987 132.638 607.756 141.553 616.526 150.197C625.295 158.841 633.577 167.216 650.872 167.216C667.923 167.216 676.205 158.841 685.218 150.197C693.987 141.553 702.756 132.638 720.538 132.638C738.32 132.638 747.09 141.553 755.859 150.197C764.628 158.841 772.91 167.216 790.205 167.216V169.107Z" fill="#F9F7F7" fill-opacity="0.3"/>
<path d="M790.205 203.144C772.423 203.144 763.654 194.229 754.884 185.585C746.115 176.941 737.833 168.566 720.538 168.566C703.244 168.566 695.205 176.941 686.192 185.585C677.423 194.229 668.654 203.144 650.872 203.144C633.09 203.144 624.321 194.229 615.551 185.585C606.782 176.941 598.5 168.566 581.205 168.566C564.154 168.566 555.872 176.941 546.859 185.585C538.09 194.229 529.32 203.144 511.538 203.144C493.756 203.144 484.987 194.229 476.218 185.585C467.449 176.941 459.167 168.566 441.872 168.566C424.82 168.566 416.538 176.941 407.526 185.585C398.756 194.229 389.987 203.144 372.205 203.144C354.423 203.144 345.654 194.229 336.885 185.585C328.115 176.941 319.833 168.566 302.782 168.566C285.731 168.566 277.449 176.941 268.679 185.585C259.91 194.229 251.141 203.144 233.359 203.144C215.577 203.144 206.808 194.229 198.038 185.585C189.269 176.941 180.987 168.566 163.692 168.566C146.641 168.566 138.359 176.941 129.346 185.585C120.577 194.229 111.808 203.144 94.0256 203.144C76.2435 203.144 67.4743 194.229 58.7051 185.585C49.9358 176.941 41.6538 168.566 24.6025 168.566C7.55122 168.566 -0.730836 176.941 -9.50007 185.585C-18.2693 194.229 -27.0385 203.144 -44.8206 203.144C-62.6026 203.144 -71.3719 194.229 -80.1411 185.585C-88.9103 176.941 -97.1924 168.566 -114.244 168.566V166.675C-96.4616 166.675 -87.6924 175.59 -78.9231 184.234C-70.1539 192.879 -61.8719 201.253 -44.8206 201.253C-27.7693 201.253 -19.4872 192.879 -10.718 184.234C-1.94878 175.59 6.82045 166.675 24.6025 166.675C42.3845 166.675 51.1538 175.59 59.923 184.234C68.6922 192.879 76.9743 201.253 94.0256 201.253C111.077 201.253 119.359 192.879 128.372 184.234C137.141 175.59 145.91 166.675 163.692 166.675C181.474 166.675 190.244 175.59 199.013 184.234C207.782 192.879 216.064 201.253 233.359 201.253C250.41 201.253 258.692 192.879 267.461 184.234C276.231 175.59 285 166.675 302.782 166.675C320.564 166.675 329.333 175.59 338.103 184.234C346.872 192.879 355.154 201.253 372.205 201.253C389.256 201.253 397.538 192.879 406.551 184.234C415.32 175.59 424.09 166.675 441.872 166.675C459.654 166.675 468.423 175.59 477.192 184.234C485.961 192.879 494.244 201.253 511.538 201.253C528.59 201.253 536.872 192.879 545.885 184.234C554.654 175.59 563.423 166.675 581.205 166.675C598.987 166.675 607.756 175.59 616.526 184.234C625.295 192.879 633.577 201.253 650.872 201.253C667.923 201.253 676.205 192.879 685.218 184.234C693.987 175.59 702.756 166.675 720.538 166.675C738.32 166.675 747.09 175.59 755.859 184.234C764.628 192.879 772.91 201.253 790.205 201.253V203.144Z" fill="#F9F7F7" fill-opacity="0.3"/>
<path d="M790.205 236.911C772.423 236.911 763.654 227.997 754.884 219.352C746.115 210.708 737.833 202.334 720.538 202.334C703.244 202.334 695.205 210.708 686.192 219.352C677.423 227.997 668.654 236.911 650.872 236.911C633.09 236.911 624.321 227.997 615.551 219.352C606.782 210.708 598.5 202.334 581.205 202.334C564.154 202.334 555.872 210.708 546.859 219.352C538.09 227.997 529.32 236.911 511.538 236.911C493.756 236.911 484.987 227.997 476.218 219.352C467.449 210.708 459.167 202.334 441.872 202.334C424.82 202.334 416.538 210.708 407.526 219.352C398.756 227.997 389.987 236.911 372.205 236.911C354.423 236.911 345.654 227.997 336.885 219.352C328.115 210.708 319.833 202.334 302.782 202.334C285.731 202.334 277.449 210.708 268.679 219.352C259.91 227.997 251.141 236.911 233.359 236.911C215.577 236.911 206.808 227.997 198.038 219.352C189.269 210.708 180.987 202.334 163.692 202.334C146.641 202.334 138.359 210.708 129.346 219.352C120.577 227.997 111.808 236.911 94.0256 236.911C76.2435 236.911 67.4743 227.997 58.7051 219.352C49.9358 210.708 41.6538 202.334 24.6025 202.334C7.55122 202.334 -0.730836 210.708 -9.50007 219.352C-18.2693 227.997 -27.0385 236.911 -44.8206 236.911C-62.6026 236.911 -71.3719 227.997 -80.1411 219.352C-88.9103 210.708 -97.1924 202.334 -114.244 202.334V200.443C-96.4616 200.443 -87.6924 209.357 -78.9231 218.002C-70.1539 226.646 -61.8719 235.02 -44.8206 235.02C-27.7693 235.02 -19.4872 226.646 -10.718 218.002C-1.94878 209.357 6.82045 200.443 24.6025 200.443C42.3845 200.443 51.1538 209.357 59.923 218.002C68.6922 226.646 76.9743 235.02 94.0256 235.02C111.077 235.02 119.359 226.646 128.372 218.002C137.141 209.357 145.91 200.443 163.692 200.443C181.474 200.443 190.244 209.357 199.013 218.002C207.782 226.646 216.064 235.02 233.359 235.02C250.41 235.02 258.692 226.646 267.461 218.002C276.231 209.357 285 200.443 302.782 200.443C320.564 200.443 329.333 209.357 338.103 218.002C346.872 226.646 355.154 235.02 372.205 235.02C389.256 235.02 397.538 226.646 406.551 218.002C415.32 209.357 424.09 200.443 441.872 200.443C459.654 200.443 468.423 209.357 477.192 218.002C485.961 226.646 494.244 235.02 511.538 235.02C528.59 235.02 536.872 226.646 545.885 218.002C554.654 209.357 563.423 200.443 581.205 200.443C598.987 200.443 607.756 209.357 616.526 218.002C625.295 226.646 633.577 235.02 650.872 235.02C667.923 235.02 676.205 226.646 685.218 218.002C693.987 209.357 702.756 200.443 720.538 200.443C738.32 200.443 747.09 209.357 755.859 218.002C764.628 226.646 772.91 235.02 790.205 235.02V236.911Z" fill="#F9F7F7" fill-opacity="0.3"/>
<path d="M790.205 270.949C772.423 270.949 763.654 262.034 754.884 253.39C746.115 244.745 737.833 236.371 720.538 236.371C703.244 236.371 695.205 244.745 686.192 253.39C677.423 262.034 668.654 270.949 650.872 270.949C633.09 270.949 624.321 262.034 615.551 253.39C606.782 244.745 598.5 236.371 581.205 236.371C564.154 236.371 555.872 244.745 546.859 253.39C538.09 262.034 529.32 270.949 511.538 270.949C493.756 270.949 484.987 262.034 476.218 253.39C467.449 244.745 459.167 236.371 441.872 236.371C424.82 236.371 416.538 244.745 407.526 253.39C398.756 262.034 389.987 270.949 372.205 270.949C354.423 270.949 345.654 262.034 336.885 253.39C328.115 244.745 319.833 236.371 302.782 236.371C285.731 236.371 277.449 244.745 268.679 253.39C259.91 262.034 251.141 270.949 233.359 270.949C215.577 270.949 206.808 262.034 198.038 253.39C189.269 244.745 180.987 236.371 163.692 236.371C146.641 236.371 138.359 244.745 129.346 253.39C120.577 262.034 111.808 270.949 94.0256 270.949C76.2435 270.949 67.4743 262.034 58.7051 253.39C49.9358 244.745 41.6538 236.371 24.6025 236.371C7.55122 236.371 -0.730836 244.745 -9.50007 253.39C-18.2693 262.034 -27.0385 270.949 -44.8206 270.949C-62.6026 270.949 -71.3719 262.034 -80.1411 253.39C-88.9103 244.745 -97.1924 236.371 -114.244 236.371V234.48C-96.4616 234.48 -87.6924 243.395 -78.9231 252.039C-70.1539 260.683 -61.8719 269.058 -44.8206 269.058C-27.7693 269.058 -19.4872 260.683 -10.718 252.039C-1.94878 243.395 6.82045 234.48 24.6025 234.48C42.3845 234.48 51.1538 243.395 59.923 252.039C68.6922 260.683 76.9743 269.058 94.0256 269.058C111.077 269.058 119.359 260.683 128.372 252.039C137.141 243.395 145.91 234.48 163.692 234.48C181.474 234.48 190.244 243.395 199.013 252.039C207.782 260.683 216.064 269.058 233.359 269.058C250.41 269.058 258.692 260.683 267.461 252.039C276.231 243.395 285 234.48 302.782 234.48C320.564 234.48 329.333 243.395 338.103 252.039C346.872 260.683 355.154 269.058 372.205 269.058C389.256 269.058 397.538 260.683 406.551 252.039C415.32 243.395 424.09 234.48 441.872 234.48C459.654 234.48 468.423 243.395 477.192 252.039C485.961 260.683 494.244 269.058 511.538 269.058C528.59 269.058 536.872 260.683 545.885 252.039C554.654 243.395 563.423 234.48 581.205 234.48C598.987 234.48 607.756 243.395 616.526 252.039C625.295 260.683 633.577 269.058 650.872 269.058C667.923 269.058 676.205 260.683 685.218 252.039C693.987 243.395 702.756 234.48 720.538 234.48C738.32 234.48 747.09 243.395 755.859 252.039C764.628 260.683 772.91 269.058 790.205 269.058V270.949Z" fill="#F9F7F7" fill-opacity="0.3"/>
<path d="M790.205 304.986C772.423 304.986 763.654 296.072 754.884 287.427C746.115 278.783 737.833 270.409 720.538 270.409C703.244 270.409 695.205 278.783 686.192 287.427C677.423 296.072 668.654 304.986 650.872 304.986C633.09 304.986 624.321 296.072 615.551 287.427C606.782 278.783 598.5 270.409 581.205 270.409C564.154 270.409 555.872 278.783 546.859 287.427C538.09 296.072 529.32 304.986 511.538 304.986C493.756 304.986 484.987 296.072 476.218 287.427C467.449 278.783 459.167 270.409 441.872 270.409C424.82 270.409 416.538 278.783 407.526 287.427C398.756 296.072 389.987 304.986 372.205 304.986C354.423 304.986 345.654 296.072 336.885 287.427C328.115 278.783 319.833 270.409 302.782 270.409C285.731 270.409 277.449 278.783 268.679 287.427C259.91 296.072 251.141 304.986 233.359 304.986C215.577 304.986 206.808 296.072 198.038 287.427C189.269 278.783 180.987 270.409 163.692 270.409C146.641 270.409 138.359 278.783 129.346 287.427C120.577 296.072 111.808 304.986 94.0256 304.986C76.2435 304.986 67.4743 296.072 58.7051 287.427C49.9358 278.783 41.6538 270.409 24.6025 270.409C7.55122 270.409 -0.730836 278.783 -9.50007 287.427C-18.2693 296.072 -27.0385 304.986 -44.8206 304.986C-62.6026 304.986 -71.3719 296.072 -80.1411 287.427C-88.9103 278.783 -97.1924 270.409 -114.244 270.409V268.518C-96.4616 268.518 -87.6924 277.432 -78.9231 286.077C-70.1539 294.721 -61.8719 303.095 -44.8206 303.095C-27.7693 303.095 -19.4872 294.721 -10.718 286.077C-1.94878 277.432 6.82045 268.518 24.6025 268.518C42.3845 268.518 51.1538 277.432 59.923 286.077C68.6922 294.721 76.9743 303.095 94.0256 303.095C111.077 303.095 119.359 294.721 128.372 286.077C137.141 277.432 145.91 268.518 163.692 268.518C181.474 268.518 190.244 277.432 199.013 286.077C207.782 294.721 216.064 303.095 233.359 303.095C250.41 303.095 258.692 294.721 267.461 286.077C276.231 277.432 285 268.518 302.782 268.518C320.564 268.518 329.333 277.432 338.103 286.077C346.872 294.721 355.154 303.095 372.205 303.095C389.256 303.095 397.538 294.721 406.551 286.077C415.32 277.432 424.09 268.518 441.872 268.518C459.654 268.518 468.423 277.432 477.192 286.077C485.961 294.721 494.244 303.095 511.538 303.095C528.59 303.095 536.872 294.721 545.885 286.077C554.654 277.432 563.423 268.518 581.205 268.518C598.987 268.518 607.756 277.432 616.526 286.077C625.295 294.721 633.577 303.095 650.872 303.095C667.923 303.095 676.205 294.721 685.218 286.077C693.987 277.432 702.756 268.518 720.538 268.518C738.32 268.518 747.09 277.432 755.859 286.077C764.628 294.721 772.91 303.095 790.205 303.095V304.986Z" fill="#F9F7F7" fill-opacity="0.3"/>
<path d="M790.205 339.024C772.423 339.024 763.654 330.109 754.884 321.465C746.115 312.82 737.833 304.446 720.538 304.446C703.244 304.446 695.205 312.82 686.192 321.465C677.423 330.109 668.654 339.024 650.872 339.024C633.09 339.024 624.321 330.109 615.551 321.465C606.782 312.82 598.5 304.446 581.205 304.446C564.154 304.446 555.872 312.82 546.859 321.465C538.09 330.109 529.32 339.024 511.538 339.024C493.756 339.024 484.987 330.109 476.218 321.465C467.449 312.82 459.167 304.446 441.872 304.446C424.82 304.446 416.538 312.82 407.526 321.465C398.756 330.109 389.987 339.024 372.205 339.024C354.423 339.024 345.654 330.109 336.885 321.465C328.115 312.82 319.833 304.446 302.782 304.446C285.731 304.446 277.449 312.82 268.679 321.465C259.91 330.109 251.141 339.024 233.359 339.024C215.577 339.024 206.808 330.109 198.038 321.465C189.269 312.82 180.987 304.446 163.692 304.446C146.641 304.446 138.359 312.82 129.346 321.465C120.577 330.109 111.808 339.024 94.0256 339.024C76.2435 339.024 67.4743 330.109 58.7051 321.465C49.9358 312.82 41.6538 304.446 24.6025 304.446C7.55122 304.446 -0.730836 312.82 -9.50007 321.465C-18.2693 330.109 -27.0385 339.024 -44.8206 339.024C-62.6026 339.024 -71.3719 330.109 -80.1411 321.465C-88.9103 312.82 -97.1924 304.446 -114.244 304.446V302.555C-96.4616 302.555 -87.6924 311.47 -78.9231 320.114C-70.1539 328.759 -61.8719 337.133 -44.8206 337.133C-27.7693 337.133 -19.4872 328.759 -10.718 320.114C-1.94878 311.47 6.82045 302.555 24.6025 302.555C42.3845 302.555 51.1538 311.47 59.923 320.114C68.6922 328.759 76.9743 337.133 94.0256 337.133C111.077 337.133 119.359 328.759 128.372 320.114C137.141 311.47 145.91 302.555 163.692 302.555C181.474 302.555 190.244 311.47 199.013 320.114C207.782 328.759 216.064 337.133 233.359 337.133C250.41 337.133 258.692 328.759 267.461 320.114C276.231 311.47 285 302.555 302.782 302.555C320.564 302.555 329.333 311.47 338.103 320.114C346.872 328.759 355.154 337.133 372.205 337.133C389.256 337.133 397.538 328.759 406.551 320.114C415.32 311.47 424.09 302.555 441.872 302.555C459.654 302.555 468.423 311.47 477.192 320.114C485.961 328.759 494.244 337.133 511.538 337.133C528.59 337.133 536.872 328.759 545.885 320.114C554.654 311.47 563.423 302.555 581.205 302.555C598.987 302.555 607.756 311.47 616.526 320.114C625.295 328.759 633.577 337.133 650.872 337.133C667.923 337.133 676.205 328.759 685.218 320.114C693.987 311.47 702.756 302.555 720.538 302.555C738.32 302.555 747.09 311.47 755.859 320.114C764.628 328.759 772.91 337.133 790.205 337.133V339.024Z" fill="#F9F7F7" fill-opacity="0.3"/>
<path d="M790.205 372.791C772.423 372.791 763.654 363.876 754.884 355.232C746.115 346.588 737.833 338.213 720.538 338.213C703.244 338.213 695.205 346.588 686.192 355.232C677.423 363.876 668.654 372.791 650.872 372.791C633.09 372.791 624.321 363.876 615.551 355.232C606.782 346.588 598.5 338.213 581.205 338.213C564.154 338.213 555.872 346.588 546.859 355.232C538.09 363.876 529.32 372.791 511.538 372.791C493.756 372.791 484.987 363.876 476.218 355.232C467.449 346.588 459.167 338.213 441.872 338.213C424.82 338.213 416.538 346.588 407.526 355.232C398.756 363.876 389.987 372.791 372.205 372.791C354.423 372.791 345.654 363.876 336.885 355.232C328.115 346.588 319.833 338.213 302.782 338.213C285.731 338.213 277.449 346.588 268.679 355.232C259.91 363.876 251.141 372.791 233.359 372.791C215.577 372.791 206.808 363.876 198.038 355.232C189.269 346.588 180.987 338.213 163.692 338.213C146.641 338.213 138.359 346.588 129.346 355.232C120.577 363.876 111.808 372.791 94.0256 372.791C76.2435 372.791 67.4743 363.876 58.7051 355.232C49.9358 346.588 41.6538 338.213 24.6025 338.213C7.55122 338.213 -0.730836 346.588 -9.50007 355.232C-18.2693 363.876 -27.0385 372.791 -44.8206 372.791C-62.6026 372.791 -71.3719 363.876 -80.1411 355.232C-88.9103 346.588 -97.1924 338.213 -114.244 338.213V336.322C-96.4616 336.322 -87.6924 345.237 -78.9231 353.881C-70.1539 362.526 -61.8719 370.9 -44.8206 370.9C-27.7693 370.9 -19.4872 362.526 -10.718 353.881C-1.94878 345.237 6.82045 336.322 24.6025 336.322C42.3845 336.322 51.1538 345.237 59.923 353.881C68.6922 362.526 76.9743 370.9 94.0256 370.9C111.077 370.9 119.359 362.526 128.372 353.881C137.141 345.237 145.91 336.322 163.692 336.322C181.474 336.322 190.244 345.237 199.013 353.881C207.782 362.526 216.064 370.9 233.359 370.9C250.41 370.9 258.692 362.526 267.461 353.881C276.231 345.237 285 336.322 302.782 336.322C320.564 336.322 329.333 345.237 338.103 353.881C346.872 362.526 355.154 370.9 372.205 370.9C389.256 370.9 397.538 362.526 406.551 353.881C415.32 345.237 424.09 336.322 441.872 336.322C459.654 336.322 468.423 345.237 477.192 353.881C485.961 362.526 494.244 370.9 511.538 370.9C528.59 370.9 536.872 362.526 545.885 353.881C554.654 345.237 563.423 336.322 581.205 336.322C598.987 336.322 607.756 345.237 616.526 353.881C625.295 362.526 633.577 370.9 650.872 370.9C667.923 370.9 676.205 362.526 685.218 353.881C693.987 345.237 702.756 336.322 720.538 336.322C738.32 336.322 747.09 345.237 755.859 353.881C764.628 362.526 772.91 370.9 790.205 370.9V372.791Z" fill="#F9F7F7" fill-opacity="0.3"/>
<path d="M790.205 406.829C772.423 406.829 763.654 397.914 754.884 389.27C746.115 380.625 737.833 372.251 720.538 372.251C703.244 372.251 695.205 380.625 686.192 389.27C677.423 397.914 668.654 406.829 650.872 406.829C633.09 406.829 624.321 397.914 615.551 389.27C606.782 380.625 598.5 372.251 581.205 372.251C564.154 372.251 555.872 380.625 546.859 389.27C538.09 397.914 529.32 406.829 511.538 406.829C493.756 406.829 484.987 397.914 476.218 389.27C467.449 380.625 459.167 372.251 441.872 372.251C424.82 372.251 416.538 380.625 407.526 389.27C398.756 397.914 389.987 406.829 372.205 406.829C354.423 406.829 345.654 397.914 336.885 389.27C328.115 380.625 319.833 372.251 302.782 372.251C285.731 372.251 277.449 380.625 268.679 389.27C259.91 397.914 251.141 406.829 233.359 406.829C215.577 406.829 206.808 397.914 198.038 389.27C189.269 380.625 180.987 372.251 163.692 372.251C146.641 372.251 138.359 380.625 129.346 389.27C120.577 397.914 111.808 406.829 94.0256 406.829C76.2435 406.829 67.4743 397.914 58.7051 389.27C49.9358 380.625 41.6538 372.251 24.6025 372.251C7.55122 372.251 -0.730836 380.625 -9.50007 389.27C-18.2693 397.914 -27.0385 406.829 -44.8206 406.829C-62.6026 406.829 -71.3719 397.914 -80.1411 389.27C-88.9103 380.625 -97.1924 372.251 -114.244 372.251V370.36C-96.4616 370.36 -87.6924 379.274 -78.9231 387.919C-70.1539 396.563 -61.8719 404.938 -44.8206 404.938C-27.7693 404.938 -19.4872 396.563 -10.718 387.919C-1.94878 379.274 6.82045 370.36 24.6025 370.36C42.3845 370.36 51.1538 379.274 59.923 387.919C68.6922 396.563 76.9743 404.938 94.0256 404.938C111.077 404.938 119.359 396.563 128.372 387.919C137.141 379.274 145.91 370.36 163.692 370.36C181.474 370.36 190.244 379.274 199.013 387.919C207.782 396.563 216.064 404.938 233.359 404.938C250.41 404.938 258.692 396.563 267.461 387.919C276.231 379.274 285 370.36 302.782 370.36C320.564 370.36 329.333 379.274 338.103 387.919C346.872 396.563 355.154 404.938 372.205 404.938C389.256 404.938 397.538 396.563 406.551 387.919C415.32 379.274 424.09 370.36 441.872 370.36C459.654 370.36 468.423 379.274 477.192 387.919C485.961 396.563 494.244 404.938 511.538 404.938C528.59 404.938 536.872 396.563 545.885 387.919C554.654 379.274 563.423 370.36 581.205 370.36C598.987 370.36 607.756 379.274 616.526 387.919C625.295 396.563 633.577 404.938 650.872 404.938C667.923 404.938 676.205 396.563 685.218 387.919C693.987 379.274 702.756 370.36 720.538 370.36C738.32 370.36 747.09 379.274 755.859 387.919C764.628 396.563 772.91 404.938 790.205 404.938V406.829Z" fill="#F9F7F7" fill-opacity="0.3"/>
<path d="M790.205 440.866C772.423 440.866 763.654 431.952 754.884 423.307C746.115 414.663 737.833 406.288 720.538 406.288C703.244 406.288 695.205 414.663 686.192 423.307C677.423 431.952 668.654 440.866 650.872 440.866C633.09 440.866 624.321 431.952 615.551 423.307C606.782 414.663 598.5 406.288 581.205 406.288C564.154 406.288 555.872 414.663 546.859 423.307C538.09 431.952 529.32 440.866 511.538 440.866C493.756 440.866 484.987 431.952 476.218 423.307C467.449 414.663 459.167 406.288 441.872 406.288C424.82 406.288 416.538 414.663 407.526 423.307C398.756 431.952 389.987 440.866 372.205 440.866C354.423 440.866 345.654 431.952 336.885 423.307C328.115 414.663 319.833 406.288 302.782 406.288C285.731 406.288 277.449 414.663 268.679 423.307C259.91 431.952 251.141 440.866 233.359 440.866C215.577 440.866 206.808 431.952 198.038 423.307C189.269 414.663 180.987 406.288 163.692 406.288C146.641 406.288 138.359 414.663 129.346 423.307C120.577 431.952 111.808 440.866 94.0256 440.866C76.2435 440.866 67.4743 431.952 58.7051 423.307C49.9358 414.663 41.6538 406.288 24.6025 406.288C7.55122 406.288 -0.730836 414.663 -9.50007 423.307C-18.2693 431.952 -27.0385 440.866 -44.8206 440.866C-62.6026 440.866 -71.3719 431.952 -80.1411 423.307C-88.9103 414.663 -97.1924 406.288 -114.244 406.288V404.397C-96.4616 404.397 -87.6924 413.312 -78.9231 421.956C-70.1539 430.601 -61.8719 438.975 -44.8206 438.975C-27.7693 438.975 -19.4872 430.601 -10.718 421.956C-1.94878 413.312 6.82045 404.397 24.6025 404.397C42.3845 404.397 51.1538 413.312 59.923 421.956C68.6922 430.601 76.9743 438.975 94.0256 438.975C111.077 438.975 119.359 430.601 128.372 421.956C137.141 413.312 145.91 404.397 163.692 404.397C181.474 404.397 190.244 413.312 199.013 421.956C207.782 430.601 216.064 438.975 233.359 438.975C250.41 438.975 258.692 430.601 267.461 421.956C276.231 413.312 285 404.397 302.782 404.397C320.564 404.397 329.333 413.312 338.103 421.956C346.872 430.601 355.154 438.975 372.205 438.975C389.256 438.975 397.538 430.601 406.551 421.956C415.32 413.312 424.09 404.397 441.872 404.397C459.654 404.397 468.423 413.312 477.192 421.956C485.961 430.601 494.244 438.975 511.538 438.975C528.59 438.975 536.872 430.601 545.885 421.956C554.654 413.312 563.423 404.397 581.205 404.397C598.987 404.397 607.756 413.312 616.526 421.956C625.295 430.601 633.577 438.975 650.872 438.975C667.923 438.975 676.205 430.601 685.218 421.956C693.987 413.312 702.756 404.397 720.538 404.397C738.32 404.397 747.09 413.312 755.859 421.956C764.628 430.601 772.91 438.975 790.205 438.975V440.866Z" fill="#F9F7F7" fill-opacity="0.3"/>
<path d="M790.205 474.904C772.423 474.904 763.654 465.989 754.884 457.345C746.115 448.7 737.833 440.326 720.538 440.326C703.244 440.326 695.205 448.7 686.192 457.345C677.423 465.989 668.654 474.904 650.872 474.904C633.09 474.904 624.321 465.989 615.551 457.345C606.782 448.7 598.5 440.326 581.205 440.326C564.154 440.326 555.872 448.7 546.859 457.345C538.09 465.989 529.32 474.904 511.538 474.904C493.756 474.904 484.987 465.989 476.218 457.345C467.449 448.7 459.167 440.326 441.872 440.326C424.82 440.326 416.538 448.7 407.526 457.345C398.756 465.989 389.987 474.904 372.205 474.904C354.423 474.904 345.654 465.989 336.885 457.345C328.115 448.7 319.833 440.326 302.782 440.326C285.731 440.326 277.449 448.7 268.679 457.345C259.91 465.989 251.141 474.904 233.359 474.904C215.577 474.904 206.808 465.989 198.038 457.345C189.269 448.7 180.987 440.326 163.692 440.326C146.641 440.326 138.359 448.7 129.346 457.345C120.577 465.989 111.808 474.904 94.0256 474.904C76.2435 474.904 67.4743 465.989 58.7051 457.345C49.9358 448.7 41.6538 440.326 24.6025 440.326C7.55122 440.326 -0.730836 448.7 -9.50007 457.345C-18.2693 465.989 -27.0385 474.904 -44.8206 474.904C-62.6026 474.904 -71.3719 465.989 -80.1411 457.345C-88.9103 448.7 -97.1924 440.326 -114.244 440.326V438.435C-96.4616 438.435 -87.6924 447.349 -78.9231 455.994C-70.1539 464.638 -61.8719 473.013 -44.8206 473.013C-27.7693 473.013 -19.4872 464.638 -10.718 455.994C-1.94878 447.349 6.82045 438.435 24.6025 438.435C42.3845 438.435 51.1538 447.349 59.923 455.994C68.6922 464.638 76.9743 473.013 94.0256 473.013C111.077 473.013 119.359 464.638 128.372 455.994C137.141 447.349 145.91 438.435 163.692 438.435C181.474 438.435 190.244 447.349 199.013 455.994C207.782 464.638 216.064 473.013 233.359 473.013C250.41 473.013 258.692 464.638 267.461 455.994C276.231 447.349 285 438.435 302.782 438.435C320.564 438.435 329.333 447.349 338.103 455.994C346.872 464.638 355.154 473.013 372.205 473.013C389.256 473.013 397.538 464.638 406.551 455.994C415.32 447.349 424.09 438.435 441.872 438.435C459.654 438.435 468.423 447.349 477.192 455.994C485.961 464.638 494.244 473.013 511.538 473.013C528.59 473.013 536.872 464.638 545.885 455.994C554.654 447.349 563.423 438.435 581.205 438.435C598.987 438.435 607.756 447.349 616.526 455.994C625.295 464.638 633.577 473.013 650.872 473.013C667.923 473.013 676.205 464.638 685.218 455.994C693.987 447.349 702.756 438.435 720.538 438.435C738.32 438.435 747.09 447.349 755.859 455.994C764.628 464.638 772.91 473.013 790.205 473.013V474.904Z" fill="#F9F7F7" fill-opacity="0.3"/>
<path d="M790.205 508.671C772.423 508.671 763.654 499.757 754.884 491.112C746.115 482.468 737.833 474.093 720.538 474.093C703.244 474.093 695.205 482.468 686.192 491.112C677.423 499.757 668.654 508.671 650.872 508.671C633.09 508.671 624.321 499.757 615.551 491.112C606.782 482.468 598.5 474.093 581.205 474.093C564.154 474.093 555.872 482.468 546.859 491.112C538.09 499.757 529.32 508.671 511.538 508.671C493.756 508.671 484.987 499.757 476.218 491.112C467.449 482.468 459.167 474.093 441.872 474.093C424.82 474.093 416.538 482.468 407.526 491.112C398.756 499.757 389.987 508.671 372.205 508.671C354.423 508.671 345.654 499.757 336.885 491.112C328.115 482.468 319.833 474.093 302.782 474.093C285.731 474.093 277.449 482.468 268.679 491.112C259.91 499.757 251.141 508.671 233.359 508.671C215.577 508.671 206.808 499.757 198.038 491.112C189.269 482.468 180.987 474.093 163.692 474.093C146.641 474.093 138.359 482.468 129.346 491.112C120.577 499.757 111.808 508.671 94.0256 508.671C76.2435 508.671 67.4743 499.757 58.7051 491.112C49.9358 482.468 41.6538 474.093 24.6025 474.093C7.55122 474.093 -0.730836 482.468 -9.50007 491.112C-18.2693 499.757 -27.0385 508.671 -44.8206 508.671C-62.6026 508.671 -71.3719 499.757 -80.1411 491.112C-88.9103 482.468 -97.1924 474.093 -114.244 474.093V472.202C-96.4616 472.202 -87.6924 481.117 -78.9231 489.761C-70.1539 498.406 -61.8719 506.78 -44.8206 506.78C-27.7693 506.78 -19.4872 498.406 -10.718 489.761C-1.94878 481.117 6.82045 472.202 24.6025 472.202C42.3845 472.202 51.1538 481.117 59.923 489.761C68.6922 498.406 76.9743 506.78 94.0256 506.78C111.077 506.78 119.359 498.406 128.372 489.761C137.141 481.117 145.91 472.202 163.692 472.202C181.474 472.202 190.244 481.117 199.013 489.761C207.782 498.406 216.064 506.78 233.359 506.78C250.41 506.78 258.692 498.406 267.461 489.761C276.231 481.117 285 472.202 302.782 472.202C320.564 472.202 329.333 481.117 338.103 489.761C346.872 498.406 355.154 506.78 372.205 506.78C389.256 506.78 397.538 498.406 406.551 489.761C415.32 481.117 424.09 472.202 441.872 472.202C459.654 472.202 468.423 481.117 477.192 489.761C485.961 498.406 494.244 506.78 511.538 506.78C528.59 506.78 536.872 498.406 545.885 489.761C554.654 481.117 563.423 472.202 581.205 472.202C598.987 472.202 607.756 481.117 616.526 489.761C625.295 498.406 633.577 506.78 650.872 506.78C667.923 506.78 676.205 498.406 685.218 489.761C693.987 481.117 702.756 472.202 720.538 472.202C738.32 472.202 747.09 481.117 755.859 489.761C764.628 498.406 772.91 506.78 790.205 506.78V508.671Z" fill="#F9F7F7" fill-opacity="0.3"/>
<path d="M790.205 542.708C772.423 542.708 763.654 533.794 754.884 525.149C746.115 516.505 737.833 508.131 720.538 508.131C703.244 508.131 695.205 516.505 686.192 525.149C677.423 533.794 668.654 542.708 650.872 542.708C633.09 542.708 624.321 533.794 615.551 525.149C606.782 516.505 598.5 508.131 581.205 508.131C564.154 508.131 555.872 516.505 546.859 525.149C538.09 533.794 529.32 542.708 511.538 542.708C493.756 542.708 484.987 533.794 476.218 525.149C467.449 516.505 459.167 508.131 441.872 508.131C424.82 508.131 416.538 516.505 407.526 525.149C398.756 533.794 389.987 542.708 372.205 542.708C354.423 542.708 345.654 533.794 336.885 525.149C328.115 516.505 319.833 508.131 302.782 508.131C285.731 508.131 277.449 516.505 268.679 525.149C259.91 533.794 251.141 542.708 233.359 542.708C215.577 542.708 206.808 533.794 198.038 525.149C189.269 516.505 180.987 508.131 163.692 508.131C146.641 508.131 138.359 516.505 129.346 525.149C120.577 533.794 111.808 542.708 94.0256 542.708C76.2435 542.708 67.4743 533.794 58.7051 525.149C49.9358 516.505 41.6538 508.131 24.6025 508.131C7.55122 508.131 -0.730836 516.505 -9.50007 525.149C-18.2693 533.794 -27.0385 542.708 -44.8206 542.708C-62.6026 542.708 -71.3719 533.794 -80.1411 525.149C-88.9103 516.505 -97.1924 508.131 -114.244 508.131V506.24C-96.4616 506.24 -87.6924 515.154 -78.9231 523.799C-70.1539 532.443 -61.8719 540.818 -44.8206 540.818C-27.7693 540.818 -19.4872 532.443 -10.718 523.799C-1.94878 515.154 6.82045 506.24 24.6025 506.24C42.3845 506.24 51.1538 515.154 59.923 523.799C68.6922 532.443 76.9743 540.818 94.0256 540.818C111.077 540.818 119.359 532.443 128.372 523.799C137.141 515.154 145.91 506.24 163.692 506.24C181.474 506.24 190.244 515.154 199.013 523.799C207.782 532.443 216.064 540.818 233.359 540.818C250.41 540.818 258.692 532.443 267.461 523.799C276.231 515.154 285 506.24 302.782 506.24C320.564 506.24 329.333 515.154 338.103 523.799C346.872 532.443 355.154 540.818 372.205 540.818C389.256 540.818 397.538 532.443 406.551 523.799C415.32 515.154 424.09 506.24 441.872 506.24C459.654 506.24 468.423 515.154 477.192 523.799C485.961 532.443 494.244 540.818 511.538 540.818C528.59 540.818 536.872 532.443 545.885 523.799C554.654 515.154 563.423 506.24 581.205 506.24C598.987 506.24 607.756 515.154 616.526 523.799C625.295 532.443 633.577 540.818 650.872 540.818C667.923 540.818 676.205 532.443 685.218 523.799C693.987 515.154 702.756 506.24 720.538 506.24C738.32 506.24 747.09 515.154 755.859 523.799C764.628 532.443 772.91 540.818 790.205 540.818V542.708Z" fill="#F9F7F7" fill-opacity="0.3"/>
<path d="M790.205 576.746C772.423 576.746 763.654 567.832 754.884 559.187C746.115 550.543 737.833 542.168 720.538 542.168C703.244 542.168 695.205 550.543 686.192 559.187C677.423 567.832 668.654 576.746 650.872 576.746C633.09 576.746 624.321 567.832 615.551 559.187C606.782 550.543 598.5 542.168 581.205 542.168C564.154 542.168 555.872 550.543 546.859 559.187C538.09 567.832 529.32 576.746 511.538 576.746C493.756 576.746 484.987 567.832 476.218 559.187C467.449 550.543 459.167 542.168 441.872 542.168C424.82 542.168 416.538 550.543 407.526 559.187C398.756 567.832 389.987 576.746 372.205 576.746C354.423 576.746 345.654 567.832 336.885 559.187C328.115 550.543 319.833 542.168 302.782 542.168C285.731 542.168 277.449 550.543 268.679 559.187C259.91 567.832 251.141 576.746 233.359 576.746C215.577 576.746 206.808 567.832 198.038 559.187C189.269 550.543 180.987 542.168 163.692 542.168C146.641 542.168 138.359 550.543 129.346 559.187C120.577 567.832 111.808 576.746 94.0256 576.746C76.2435 576.746 67.4743 567.832 58.7051 559.187C49.9358 550.543 41.6538 542.168 24.6025 542.168C7.55122 542.168 -0.730836 550.543 -9.50007 559.187C-18.2693 567.832 -27.0385 576.746 -44.8206 576.746C-62.6026 576.746 -71.3719 567.832 -80.1411 559.187C-88.9103 550.543 -97.1924 542.168 -114.244 542.168V540.277C-96.4616 540.277 -87.6924 549.192 -78.9231 557.836C-70.1539 566.481 -61.8719 574.855 -44.8206 574.855C-27.7693 574.855 -19.4872 566.481 -10.718 557.836C-1.94878 549.192 6.82045 540.277 24.6025 540.277C42.3845 540.277 51.1538 549.192 59.923 557.836C68.6922 566.481 76.9743 574.855 94.0256 574.855C111.077 574.855 119.359 566.481 128.372 557.836C137.141 549.192 145.91 540.277 163.692 540.277C181.474 540.277 190.244 549.192 199.013 557.836C207.782 566.481 216.064 574.855 233.359 574.855C250.41 574.855 258.692 566.481 267.461 557.836C276.231 549.192 285 540.277 302.782 540.277C320.564 540.277 329.333 549.192 338.103 557.836C346.872 566.481 355.154 574.855 372.205 574.855C389.256 574.855 397.538 566.481 406.551 557.836C415.32 549.192 424.09 540.277 441.872 540.277C459.654 540.277 468.423 549.192 477.192 557.836C485.961 566.481 494.244 574.855 511.538 574.855C528.59 574.855 536.872 566.481 545.885 557.836C554.654 549.192 563.423 540.277 581.205 540.277C598.987 540.277 607.756 549.192 616.526 557.836C625.295 566.481 633.577 574.855 650.872 574.855C667.923 574.855 676.205 566.481 685.218 557.836C693.987 549.192 702.756 540.277 720.538 540.277C738.32 540.277 747.09 549.192 755.859 557.836C764.628 566.481 772.91 574.855 790.205 574.855V576.746Z" fill="#F9F7F7" fill-opacity="0.3"/>
<path d="M790.205 610.784C772.423 610.784 763.654 601.869 754.884 593.225C746.115 584.58 737.833 576.206 720.538 576.206C703.244 576.206 695.205 584.58 686.192 593.225C677.423 601.869 668.654 610.784 650.872 610.784C633.09 610.784 624.321 601.869 615.551 593.225C606.782 584.58 598.5 576.206 581.205 576.206C564.154 576.206 555.872 584.58 546.859 593.225C538.09 601.869 529.32 610.784 511.538 610.784C493.756 610.784 484.987 601.869 476.218 593.225C467.449 584.58 459.167 576.206 441.872 576.206C424.82 576.206 416.538 584.58 407.526 593.225C398.756 601.869 389.987 610.784 372.205 610.784C354.423 610.784 345.654 601.869 336.885 593.225C328.115 584.58 319.833 576.206 302.782 576.206C285.731 576.206 277.449 584.58 268.679 593.225C259.91 601.869 251.141 610.784 233.359 610.784C215.577 610.784 206.808 601.869 198.038 593.225C189.269 584.58 180.987 576.206 163.692 576.206C146.641 576.206 138.359 584.58 129.346 593.225C120.577 601.869 111.808 610.784 94.0256 610.784C76.2435 610.784 67.4743 601.869 58.7051 593.225C49.9358 584.58 41.6538 576.206 24.6025 576.206C7.55122 576.206 -0.730836 584.58 -9.50007 593.225C-18.2693 601.869 -27.0385 610.784 -44.8206 610.784C-62.6026 610.784 -71.3719 601.869 -80.1411 593.225C-88.9103 584.58 -97.1924 576.206 -114.244 576.206V574.315C-96.4616 574.315 -87.6924 583.229 -78.9231 591.874C-70.1539 600.518 -61.8719 608.893 -44.8206 608.893C-27.7693 608.893 -19.4872 600.518 -10.718 591.874C-1.94878 583.229 6.82045 574.315 24.6025 574.315C42.3845 574.315 51.1538 583.229 59.923 591.874C68.6922 600.518 76.9743 608.893 94.0256 608.893C111.077 608.893 119.359 600.518 128.372 591.874C137.141 583.229 145.91 574.315 163.692 574.315C181.474 574.315 190.244 583.229 199.013 591.874C207.782 600.518 216.064 608.893 233.359 608.893C250.41 608.893 258.692 600.518 267.461 591.874C276.231 583.229 285 574.315 302.782 574.315C320.564 574.315 329.333 583.229 338.103 591.874C346.872 600.518 355.154 608.893 372.205 608.893C389.256 608.893 397.538 600.518 406.551 591.874C415.32 583.229 424.09 574.315 441.872 574.315C459.654 574.315 468.423 583.229 477.192 591.874C485.961 600.518 494.244 608.893 511.538 608.893C528.59 608.893 536.872 600.518 545.885 591.874C554.654 583.229 563.423 574.315 581.205 574.315C598.987 574.315 607.756 583.229 616.526 591.874C625.295 600.518 633.577 608.893 650.872 608.893C667.923 608.893 676.205 600.518 685.218 591.874C693.987 583.229 702.756 574.315 720.538 574.315C738.32 574.315 747.09 583.229 755.859 591.874C764.628 600.518 772.91 608.893 790.205 608.893V610.784Z" fill="#F9F7F7" fill-opacity="0.3"/>
<path d="M790.205 644.551C772.423 644.551 763.654 635.636 754.884 626.992C746.115 618.347 737.833 609.973 720.538 609.973C703.244 609.973 695.205 618.347 686.192 626.992C677.423 635.636 668.654 644.551 650.872 644.551C633.09 644.551 624.321 635.636 615.551 626.992C606.782 618.347 598.5 609.973 581.205 609.973C564.154 609.973 555.872 618.347 546.859 626.992C538.09 635.636 529.32 644.551 511.538 644.551C493.756 644.551 484.987 635.636 476.218 626.992C467.449 618.347 459.167 609.973 441.872 609.973C424.82 609.973 416.538 618.347 407.526 626.992C398.756 635.636 389.987 644.551 372.205 644.551C354.423 644.551 345.654 635.636 336.885 626.992C328.115 618.347 319.833 609.973 302.782 609.973C285.731 609.973 277.449 618.347 268.679 626.992C259.91 635.636 251.141 644.551 233.359 644.551C215.577 644.551 206.808 635.636 198.038 626.992C189.269 618.347 180.987 609.973 163.692 609.973C146.641 609.973 138.359 618.347 129.346 626.992C120.577 635.636 111.808 644.551 94.0256 644.551C76.2435 644.551 67.4743 635.636 58.7051 626.992C49.9358 618.347 41.6538 609.973 24.6025 609.973C7.55122 609.973 -0.730836 618.347 -9.50007 626.992C-18.2693 635.636 -27.0385 644.551 -44.8206 644.551C-62.6026 644.551 -71.3719 635.636 -80.1411 626.992C-88.9103 618.347 -97.1924 609.973 -114.244 609.973V608.082C-96.4616 608.082 -87.6924 616.997 -78.9231 625.641C-70.1539 634.286 -61.8719 642.66 -44.8206 642.66C-27.7693 642.66 -19.4872 634.286 -10.718 625.641C-1.94878 616.997 6.82045 608.082 24.6025 608.082C42.3845 608.082 51.1538 616.997 59.923 625.641C68.6922 634.286 76.9743 642.66 94.0256 642.66C111.077 642.66 119.359 634.286 128.372 625.641C137.141 616.997 145.91 608.082 163.692 608.082C181.474 608.082 190.244 616.997 199.013 625.641C207.782 634.286 216.064 642.66 233.359 642.66C250.41 642.66 258.692 634.286 267.461 625.641C276.231 616.997 285 608.082 302.782 608.082C320.564 608.082 329.333 616.997 338.103 625.641C346.872 634.286 355.154 642.66 372.205 642.66C389.256 642.66 397.538 634.286 406.551 625.641C415.32 616.997 424.09 608.082 441.872 608.082C459.654 608.082 468.423 616.997 477.192 625.641C485.961 634.286 494.244 642.66 511.538 642.66C528.59 642.66 536.872 634.286 545.885 625.641C554.654 616.997 563.423 608.082 581.205 608.082C598.987 608.082 607.756 616.997 616.526 625.641C625.295 634.286 633.577 642.66 650.872 642.66C667.923 642.66 676.205 634.286 685.218 625.641C693.987 616.997 702.756 608.082 720.538 608.082C738.32 608.082 747.09 616.997 755.859 625.641C764.628 634.286 772.91 642.66 790.205 642.66V644.551Z" fill="#F9F7F7" fill-opacity="0.3"/>
<path d="M790.205 678.588C772.423 678.588 763.654 669.674 754.884 661.029C746.115 652.385 737.833 644.011 720.538 644.011C703.244 644.011 695.205 652.385 686.192 661.029C677.423 669.674 668.654 678.588 650.872 678.588C633.09 678.588 624.321 669.674 615.551 661.029C606.782 652.385 598.5 644.011 581.205 644.011C564.154 644.011 555.872 652.385 546.859 661.029C538.09 669.674 529.32 678.588 511.538 678.588C493.756 678.588 484.987 669.674 476.218 661.029C467.449 652.385 459.167 644.011 441.872 644.011C424.82 644.011 416.538 652.385 407.526 661.029C398.756 669.674 389.987 678.588 372.205 678.588C354.423 678.588 345.654 669.674 336.885 661.029C328.115 652.385 319.833 644.011 302.782 644.011C285.731 644.011 277.449 652.385 268.679 661.029C259.91 669.674 251.141 678.588 233.359 678.588C215.577 678.588 206.808 669.674 198.038 661.029C189.269 652.385 180.987 644.011 163.692 644.011C146.641 644.011 138.359 652.385 129.346 661.029C120.577 669.674 111.808 678.588 94.0256 678.588C76.2435 678.588 67.4743 669.674 58.7051 661.029C49.9358 652.385 41.6538 644.011 24.6025 644.011C7.55122 644.011 -0.730836 652.385 -9.50007 661.029C-18.2693 669.674 -27.0385 678.588 -44.8206 678.588C-62.6026 678.588 -71.3719 669.674 -80.1411 661.029C-88.9103 652.385 -97.1924 644.011 -114.244 644.011V642.12C-96.4616 642.12 -87.6924 651.034 -78.9231 659.679C-70.1539 668.323 -61.8719 676.698 -44.8206 676.698C-27.7693 676.698 -19.4872 668.323 -10.718 659.679C-1.94878 651.034 6.82045 642.12 24.6025 642.12C42.3845 642.12 51.1538 651.034 59.923 659.679C68.6922 668.323 76.9743 676.698 94.0256 676.698C111.077 676.698 119.359 668.323 128.372 659.679C137.141 651.034 145.91 642.12 163.692 642.12C181.474 642.12 190.244 651.034 199.013 659.679C207.782 668.323 216.064 676.698 233.359 676.698C250.41 676.698 258.692 668.323 267.461 659.679C276.231 651.034 285 642.12 302.782 642.12C320.564 642.12 329.333 651.034 338.103 659.679C346.872 668.323 355.154 676.698 372.205 676.698C389.256 676.698 397.538 668.323 406.551 659.679C415.32 651.034 424.09 642.12 441.872 642.12C459.654 642.12 468.423 651.034 477.192 659.679C485.961 668.323 494.244 676.698 511.538 676.698C528.59 676.698 536.872 668.323 545.885 659.679C554.654 651.034 563.423 642.12 581.205 642.12C598.987 642.12 607.756 651.034 616.526 659.679C625.295 668.323 633.577 676.698 650.872 676.698C667.923 676.698 676.205 668.323 685.218 659.679C693.987 651.034 702.756 642.12 720.538 642.12C738.32 642.12 747.09 651.034 755.859 659.679C764.628 668.323 772.91 676.698 790.205 676.698V678.588Z" fill="#F9F7F7" fill-opacity="0.3"/>
</g>
</svg>
