<svg width="125" height="26" viewBox="0 0 125 26" fill="none" xmlns="http://www.w3.org/2000/svg">
<path d="M12.6227 0.311035L15.4038 8.85079L24.4038 8.85079L17.1227 14.1287L19.9038 22.6684L12.6227 17.3905L5.3416 22.6684L8.12273 14.1287L0.841631 8.85079L9.84156 8.85079L12.6227 0.311035Z" fill="#4EBE9D"/>
<path d="M37.3971 0.311035L40.1782 8.85079L49.1782 8.85079L41.8971 14.1287L44.6782 22.6684L37.3971 17.3905L30.116 22.6684L32.8971 14.1287L25.616 8.85079L34.616 8.85079L37.3971 0.311035Z" fill="#4EBE9D"/>
<path d="M62.1725 0.311035L64.9536 8.85079L73.9536 8.85079L66.6725 14.1287L69.4536 22.6684L62.1725 17.3905L54.8914 22.6684L57.6725 14.1287L50.3914 8.85079L59.3914 8.85079L62.1725 0.311035Z" fill="#4EBE9D"/>
<path d="M86.9469 0.311035L89.728 8.85079L98.728 8.85079L91.4469 14.1287L94.228 22.6684L86.9469 17.3905L79.6658 22.6684L82.4469 14.1287L75.1658 8.85079L84.1658 8.85079L86.9469 0.311035Z" fill="#4EBE9D"/>
<path d="M111.721 0.311035L114.502 8.85079L123.502 8.85079L116.221 14.1287L119.002 22.6684L111.721 17.3905L104.44 22.6684L107.221 14.1287L99.9403 8.85079L108.94 8.85079L111.721 0.311035Z" fill="#4EBE9D"/>
</svg>
