<svg width="667" height="601" viewBox="0 0 667 601" fill="none" xmlns="http://www.w3.org/2000/svg">
<ellipse cx="335.5" cy="300.5" rx="331.5" ry="300.5" fill="#4EBE9D"/>
<g filter="url(#filter0_f_729_244)">
<ellipse cx="320.009" cy="299.597" rx="316.009" ry="286.964" fill="#121138"/>
<ellipse cx="320.009" cy="299.597" rx="316.009" ry="286.964" fill="url(#paint0_linear_729_244)"/>
</g>
<ellipse cx="319.5" cy="300.5" rx="285.5" ry="271.5" fill="#D9D9D9"/>
<ellipse cx="319.5" cy="300.5" rx="285.5" ry="271.5" fill="url(#paint1_linear_729_244)"/>
<ellipse cx="319.5" cy="300.5" rx="285.5" ry="271.5" fill="url(#paint2_linear_729_244)"/>
<ellipse cx="319.5" cy="300.5" rx="285.5" ry="271.5" fill="url(#paint3_diamond_729_244)" fill-opacity="0.5"/>
<g filter="url(#filter1_d_729_244)">
<mask id="path-4-outside-1_729_244" maskUnits="userSpaceOnUse" x="171.474" y="186.457" width="295.881" height="228.249" fill="black">
<rect fill="white" x="171.474" y="186.457" width="295.881" height="228.249"/>
<path d="M271.859 392.414C261.368 395.507 251.665 395.999 242.75 393.889C233.866 391.72 226.196 387.22 219.738 380.386C213.267 373.508 208.417 364.596 205.19 353.651C202.016 342.888 201.274 332.839 202.964 323.504C204.686 314.111 208.579 306.052 214.642 299.327C220.692 292.557 228.713 287.699 238.704 284.753C245.153 282.851 251.547 282.101 257.885 282.503C264.255 282.846 270.279 284.525 275.957 287.54C281.68 290.542 286.797 295.006 291.309 300.932C295.808 306.813 299.41 314.34 302.115 323.514L304.345 331.075L218.579 356.367L213.677 339.745L275.805 321.424C274.366 316.714 272.106 312.815 269.023 309.726C265.926 306.591 262.269 304.485 258.052 303.409C253.88 302.319 249.433 302.47 244.71 303.863C239.669 305.35 235.602 307.882 232.511 311.459C229.406 314.991 227.368 319.047 226.399 323.628C225.462 328.15 225.66 332.756 226.994 337.447L231.273 351.957C233.067 358.043 235.72 362.937 239.231 366.641C242.729 370.299 246.817 372.697 251.497 373.835C256.163 374.927 261.176 374.683 266.535 373.103C270.122 372.045 273.222 370.587 275.834 368.731C278.433 366.83 280.505 364.565 282.05 361.937C283.595 359.309 284.477 356.359 284.697 353.085L308.486 348.884C308.827 355.398 307.624 361.529 304.876 367.276C302.159 372.964 298.013 377.987 292.437 382.347C286.848 386.661 279.988 390.016 271.859 392.414ZM431.895 242.518L406.417 250.031C404.458 246.067 402.027 242.761 399.123 240.112C396.206 237.418 392.96 235.365 389.383 233.951C385.807 232.537 381.99 231.812 377.931 231.775C373.904 231.679 369.756 232.26 365.487 233.519C357.903 235.756 351.744 239.645 347.01 245.188C342.263 250.685 339.31 257.578 338.151 265.867C336.979 274.112 337.939 283.479 341.033 293.97C344.18 304.642 348.49 313.146 353.961 319.48C359.465 325.755 365.672 329.898 372.583 331.908C379.527 333.859 386.768 333.722 394.307 331.499C398.485 330.267 402.23 328.57 405.542 326.409C408.885 324.189 411.689 321.56 413.953 318.523C416.262 315.473 417.947 312.064 419.008 308.295C420.114 304.513 420.45 300.465 420.017 296.15L445.535 288.773C446.537 295.685 446.305 302.516 444.84 309.267C443.421 316.004 440.824 322.348 437.05 328.299C433.263 334.204 428.331 339.41 422.256 343.916C416.166 348.378 408.966 351.834 400.656 354.285C388.394 357.901 376.611 358.29 365.309 355.452C354.007 352.614 344.006 346.653 335.304 337.569C326.603 328.485 320.043 316.45 315.623 301.463C311.19 286.431 310.193 272.754 312.632 260.435C315.058 248.069 320.247 237.629 328.201 229.113C336.155 220.597 346.218 214.544 358.389 210.955C366.155 208.665 373.697 207.625 381.016 207.837C388.335 208.048 395.228 209.495 401.697 212.179C408.152 214.817 413.957 218.683 419.112 223.777C424.299 228.813 428.56 235.06 431.895 242.518Z"/>
</mask>
<path d="M271.859 392.414C261.368 395.507 251.665 395.999 242.75 393.889C233.866 391.72 226.196 387.22 219.738 380.386C213.267 373.508 208.417 364.596 205.19 353.651C202.016 342.888 201.274 332.839 202.964 323.504C204.686 314.111 208.579 306.052 214.642 299.327C220.692 292.557 228.713 287.699 238.704 284.753C245.153 282.851 251.547 282.101 257.885 282.503C264.255 282.846 270.279 284.525 275.957 287.54C281.68 290.542 286.797 295.006 291.309 300.932C295.808 306.813 299.41 314.34 302.115 323.514L304.345 331.075L218.579 356.367L213.677 339.745L275.805 321.424C274.366 316.714 272.106 312.815 269.023 309.726C265.926 306.591 262.269 304.485 258.052 303.409C253.88 302.319 249.433 302.47 244.71 303.863C239.669 305.35 235.602 307.882 232.511 311.459C229.406 314.991 227.368 319.047 226.399 323.628C225.462 328.15 225.66 332.756 226.994 337.447L231.273 351.957C233.067 358.043 235.72 362.937 239.231 366.641C242.729 370.299 246.817 372.697 251.497 373.835C256.163 374.927 261.176 374.683 266.535 373.103C270.122 372.045 273.222 370.587 275.834 368.731C278.433 366.83 280.505 364.565 282.05 361.937C283.595 359.309 284.477 356.359 284.697 353.085L308.486 348.884C308.827 355.398 307.624 361.529 304.876 367.276C302.159 372.964 298.013 377.987 292.437 382.347C286.848 386.661 279.988 390.016 271.859 392.414ZM431.895 242.518L406.417 250.031C404.458 246.067 402.027 242.761 399.123 240.112C396.206 237.418 392.96 235.365 389.383 233.951C385.807 232.537 381.99 231.812 377.931 231.775C373.904 231.679 369.756 232.26 365.487 233.519C357.903 235.756 351.744 239.645 347.01 245.188C342.263 250.685 339.31 257.578 338.151 265.867C336.979 274.112 337.939 283.479 341.033 293.97C344.18 304.642 348.49 313.146 353.961 319.48C359.465 325.755 365.672 329.898 372.583 331.908C379.527 333.859 386.768 333.722 394.307 331.499C398.485 330.267 402.23 328.57 405.542 326.409C408.885 324.189 411.689 321.56 413.953 318.523C416.262 315.473 417.947 312.064 419.008 308.295C420.114 304.513 420.45 300.465 420.017 296.15L445.535 288.773C446.537 295.685 446.305 302.516 444.84 309.267C443.421 316.004 440.824 322.348 437.05 328.299C433.263 334.204 428.331 339.41 422.256 343.916C416.166 348.378 408.966 351.834 400.656 354.285C388.394 357.901 376.611 358.29 365.309 355.452C354.007 352.614 344.006 346.653 335.304 337.569C326.603 328.485 320.043 316.45 315.623 301.463C311.19 286.431 310.193 272.754 312.632 260.435C315.058 248.069 320.247 237.629 328.201 229.113C336.155 220.597 346.218 214.544 358.389 210.955C366.155 208.665 373.697 207.625 381.016 207.837C388.335 208.048 395.228 209.495 401.697 212.179C408.152 214.817 413.957 218.683 419.112 223.777C424.299 228.813 428.56 235.06 431.895 242.518Z" fill="url(#paint4_linear_729_244)" shape-rendering="crispEdges"/>
<path d="M242.75 393.889L241.564 398.747L241.581 398.751L241.598 398.755L242.75 393.889ZM219.738 380.386L216.096 383.813L216.104 383.821L219.738 380.386ZM202.964 323.504L198.046 322.603L198.044 322.613L202.964 323.504ZM214.642 299.327L218.355 302.676L218.363 302.667L218.37 302.659L214.642 299.327ZM257.885 282.503L257.569 287.493L257.593 287.494L257.616 287.496L257.885 282.503ZM275.957 287.54L273.612 291.956L273.623 291.962L273.634 291.968L275.957 287.54ZM291.309 300.932L287.331 303.961L287.338 303.97L291.309 300.932ZM304.345 331.075L305.759 335.871L310.555 334.457L309.141 329.661L304.345 331.075ZM218.579 356.367L213.783 357.781L215.197 362.577L219.993 361.163L218.579 356.367ZM213.677 339.745L212.263 334.949L207.467 336.364L208.881 341.159L213.677 339.745ZM275.805 321.424L277.219 326.22L282.061 324.792L280.587 319.964L275.805 321.424ZM269.023 309.726L265.465 313.239L265.474 313.248L265.484 313.258L269.023 309.726ZM258.052 303.409L256.788 308.246L256.802 308.25L256.816 308.253L258.052 303.409ZM232.511 311.459L236.266 314.76L236.28 314.744L236.294 314.728L232.511 311.459ZM226.399 323.628L221.507 322.593L221.505 322.603L221.503 322.613L226.399 323.628ZM226.994 337.447L222.185 338.815L222.191 338.838L222.198 338.861L226.994 337.447ZM239.231 366.641L235.603 370.081L235.61 370.089L235.617 370.096L239.231 366.641ZM251.497 373.835L250.316 378.693L250.337 378.698L250.357 378.703L251.497 373.835ZM275.834 368.731L278.731 372.807L278.759 372.787L278.787 372.766L275.834 368.731ZM282.05 361.937L277.74 359.403L282.05 361.937ZM284.697 353.085L283.827 348.162L279.97 348.843L279.708 352.751L284.697 353.085ZM308.486 348.884L313.479 348.623L313.183 342.977L307.616 343.96L308.486 348.884ZM304.876 367.276L300.365 365.119L300.364 365.121L304.876 367.276ZM292.437 382.347L295.492 386.305L295.505 386.295L295.517 386.286L292.437 382.347ZM270.445 387.618C260.627 390.513 251.819 390.897 243.901 389.024L241.598 398.755C251.511 401.101 262.11 400.501 273.273 397.209L270.445 387.618ZM243.936 389.032C236.016 387.098 229.188 383.106 223.372 376.952L216.104 383.821C223.204 391.333 231.717 396.343 241.564 398.747L243.936 389.032ZM223.38 376.96C217.546 370.76 213.037 362.585 209.986 352.237L200.394 355.065C203.798 366.607 208.987 376.256 216.096 383.812L223.38 376.96ZM209.986 352.237C206.992 342.086 206.356 332.834 207.884 324.395L198.044 322.613C196.192 332.844 197.039 343.69 200.394 355.065L209.986 352.237ZM207.882 324.406C209.446 315.872 212.947 308.674 218.355 302.676L210.929 295.979C204.21 303.43 199.925 312.35 198.046 322.603L207.882 324.406ZM218.37 302.659C223.713 296.681 230.885 292.272 240.118 289.549L237.29 279.957C226.54 283.127 217.671 288.434 210.914 295.996L218.37 302.659ZM240.118 289.549C246.039 287.803 251.848 287.13 257.569 287.493L258.201 277.513C251.246 277.072 244.267 277.9 237.29 279.957L240.118 289.549ZM257.616 287.496C263.255 287.799 268.571 289.279 273.612 291.956L278.302 283.124C271.988 279.771 265.256 277.892 258.154 277.51L257.616 287.496ZM273.634 291.968C278.618 294.582 283.195 298.528 287.331 303.961L295.287 297.903C290.4 291.484 284.742 286.502 278.279 283.112L273.634 291.968ZM287.338 303.97C291.374 309.246 294.739 316.178 297.319 324.928L306.911 322.1C304.08 312.502 300.242 304.38 295.28 297.894L287.338 303.97ZM297.319 324.928L299.549 332.49L309.141 329.661L306.911 322.1L297.319 324.928ZM302.93 326.28L217.164 351.571L219.993 361.163L305.759 335.871L302.93 326.28ZM223.374 354.953L218.473 338.331L208.881 341.159L213.783 357.781L223.374 354.953ZM215.091 344.541L277.219 326.22L274.39 316.628L212.263 334.949L215.091 344.541ZM280.587 319.964C278.941 314.574 276.293 309.932 272.562 306.194L265.484 313.258C267.919 315.698 269.792 318.855 271.023 322.885L280.587 319.964ZM272.58 306.212C268.853 302.439 264.397 299.868 259.289 298.564L256.816 308.253C260.141 309.102 262.999 310.742 265.465 313.239L272.58 306.212ZM259.316 298.571C254.145 297.22 248.765 297.454 243.295 299.067L246.124 308.659C250.101 307.486 253.616 307.417 256.788 308.246L259.316 298.571ZM243.295 299.067C237.441 300.794 232.515 303.807 228.728 308.19L236.294 314.728C238.69 311.956 241.896 309.906 246.124 308.659L243.295 299.067ZM228.755 308.158C225.086 312.332 222.655 317.168 221.507 322.593L231.291 324.663C232.081 320.927 233.725 317.65 236.266 314.76L228.755 308.158ZM221.503 322.613C220.393 327.969 220.643 333.393 222.185 338.815L231.803 336.079C230.677 332.119 230.53 328.33 231.295 324.643L221.503 322.613ZM222.198 338.861L226.477 353.371L236.069 350.543L231.79 336.033L222.198 338.861ZM226.477 353.371C228.442 360.034 231.432 365.681 235.603 370.081L242.86 363.201C240.009 360.194 237.693 356.051 236.069 350.543L226.477 353.371ZM235.617 370.096C239.74 374.408 244.66 377.318 250.316 378.693L252.678 368.976C248.975 368.076 245.718 366.19 242.845 363.186L235.617 370.096ZM250.357 378.703C255.997 380.023 261.898 379.683 267.949 377.898L265.12 368.307C260.453 369.683 256.329 369.831 252.637 368.966L250.357 378.703ZM267.949 377.898C271.98 376.71 275.6 375.032 278.731 372.807L272.938 364.656C270.845 366.143 268.265 367.38 265.12 368.307L267.949 377.898ZM278.787 372.766C281.904 370.485 284.45 367.72 286.36 364.472L277.74 359.403C276.559 361.41 274.962 363.174 272.881 364.696L278.787 372.766ZM286.36 364.472C288.329 361.123 289.418 357.409 289.686 353.42L279.708 352.751C279.537 355.309 278.861 357.496 277.74 359.403L286.36 364.472ZM285.567 358.009L309.355 353.808L307.616 343.96L283.827 348.162L285.567 358.009ZM303.493 349.146C303.791 354.847 302.744 360.144 300.365 365.119L309.386 369.433C312.504 362.914 313.863 355.95 313.479 348.623L303.493 349.146ZM300.364 365.121C298.02 370.03 294.4 374.465 289.358 378.408L295.517 386.286C301.626 381.509 306.299 375.897 309.388 369.43L300.364 365.121ZM289.382 378.389C284.371 382.257 278.096 385.361 270.445 387.618L273.273 397.209C281.881 394.671 289.325 391.065 295.492 386.305L289.382 378.389ZM431.895 242.518L433.309 247.314L438.793 245.697L436.459 240.477L431.895 242.518ZM406.417 250.031L401.934 252.246L403.798 256.017L407.831 254.827L406.417 250.031ZM399.123 240.112L395.731 243.786L395.742 243.796L395.754 243.807L399.123 240.112ZM389.383 233.951L391.222 229.301L389.383 233.951ZM377.931 231.775L377.812 236.773L377.848 236.774L377.885 236.775L377.931 231.775ZM347.01 245.188L350.795 248.456L350.804 248.445L350.812 248.435L347.01 245.188ZM338.151 265.867L343.101 266.571L343.103 266.56L338.151 265.867ZM353.961 319.48L350.177 322.748L350.19 322.763L350.202 322.777L353.961 319.48ZM372.583 331.908L371.187 336.709L371.209 336.715L371.231 336.721L372.583 331.908ZM405.542 326.409L408.274 330.596L408.291 330.586L408.307 330.575L405.542 326.409ZM413.953 318.523L409.966 315.506L409.955 315.52L409.944 315.535L413.953 318.523ZM419.008 308.295L414.209 306.891L414.202 306.916L414.195 306.94L419.008 308.295ZM420.017 296.15L418.629 291.347L414.626 292.504L415.042 296.65L420.017 296.15ZM445.535 288.773L450.483 288.056L449.66 282.376L444.147 283.97L445.535 288.773ZM444.84 309.267L439.954 308.207L439.951 308.221L439.948 308.236L444.84 309.267ZM437.05 328.299L441.259 330.998L441.266 330.987L441.273 330.976L437.05 328.299ZM422.256 343.916L425.211 347.95L425.223 347.941L425.234 347.932L422.256 343.916ZM365.309 355.452L366.527 350.603L365.309 355.452ZM335.304 337.569L331.694 341.028L335.304 337.569ZM312.632 260.435L317.537 261.406L317.539 261.397L312.632 260.435ZM328.201 229.113L324.547 225.7L324.547 225.7L328.201 229.113ZM381.016 207.837L381.16 202.839L381.16 202.839L381.016 207.837ZM401.697 212.179L399.781 216.797L399.793 216.802L399.805 216.807L401.697 212.179ZM419.112 223.777L415.597 227.334L415.613 227.35L415.629 227.365L419.112 223.777ZM430.481 237.722L405.003 245.235L407.831 254.827L433.309 247.314L430.481 237.722ZM410.9 247.816C408.699 243.364 405.91 239.536 402.493 236.418L395.754 243.807C398.144 245.987 400.217 248.771 401.934 252.246L410.9 247.816ZM402.516 236.439C399.16 233.34 395.39 230.949 391.222 229.301L387.545 238.601C390.529 239.78 393.252 241.496 395.731 243.786L402.516 236.439ZM391.222 229.301C387.043 227.649 382.615 226.817 377.977 226.775L377.885 236.775C381.365 236.806 384.571 237.425 387.545 238.601L391.222 229.301ZM378.05 226.776C373.453 226.667 368.788 227.333 364.073 228.723L366.901 238.315C370.725 237.187 374.355 236.691 377.812 236.773L378.05 226.776ZM364.073 228.723C355.642 231.21 348.624 235.599 343.208 241.94L350.812 248.435C354.863 243.692 360.164 240.302 366.901 238.315L364.073 228.723ZM343.226 241.92C337.759 248.251 334.471 256.081 333.199 265.175L343.103 266.56C344.15 259.075 346.768 253.118 350.795 248.456L343.226 241.92ZM333.201 265.163C331.901 274.302 333.002 284.412 336.237 295.384L345.829 292.556C342.877 282.546 342.056 273.921 343.101 266.571L333.201 265.163ZM336.237 295.384C339.523 306.526 344.114 315.729 350.177 322.748L357.745 316.211C352.866 310.563 348.838 302.759 345.829 292.556L336.237 295.384ZM350.202 322.777C356.231 329.652 363.222 334.393 371.187 336.709L373.979 327.106C368.122 325.403 362.698 321.859 357.72 316.183L350.202 322.777ZM371.231 336.721C379.16 338.949 387.364 338.76 395.721 336.295L392.892 326.703C386.172 328.685 379.893 328.768 373.936 327.094L371.231 336.721ZM395.721 336.295C400.319 334.939 404.516 333.049 408.274 330.596L402.809 322.222C399.944 324.092 396.651 325.595 392.892 326.703L395.721 336.295ZM408.307 330.575C412.101 328.055 415.334 325.036 417.962 321.511L409.944 315.535C408.044 318.084 405.669 320.322 402.776 322.244L408.307 330.575ZM417.939 321.541C420.634 317.981 422.595 314.005 423.821 309.65L414.195 306.94C413.299 310.122 411.89 312.965 409.966 315.506L417.939 321.541ZM423.807 309.699C425.111 305.241 425.483 300.541 424.992 295.651L415.042 296.65C415.418 300.389 415.117 303.786 414.209 306.891L423.807 309.699ZM421.406 300.953L446.924 293.576L444.147 283.97L418.629 291.347L421.406 300.953ZM440.587 289.49C441.504 295.817 441.291 302.046 439.954 308.207L449.727 310.327C451.32 302.986 451.57 295.553 450.483 288.056L440.587 289.49ZM439.948 308.236C438.654 314.375 436.289 320.163 432.828 325.621L441.273 330.976C445.359 324.533 448.187 317.633 449.733 310.298L439.948 308.236ZM432.841 325.599C429.406 330.956 424.904 335.726 419.277 339.901L425.234 347.932C431.758 343.093 437.12 337.451 441.259 330.998L432.841 325.599ZM419.3 339.883C413.74 343.957 407.079 347.177 399.241 349.489L402.07 359.08C410.854 356.49 418.593 352.799 425.211 347.95L419.3 339.883ZM399.241 349.489C387.75 352.877 376.88 353.202 366.527 350.603L364.092 360.301C376.343 363.377 389.037 362.924 402.07 359.08L399.241 349.489ZM366.527 350.603C356.21 348.012 347.019 342.571 338.915 334.111L331.694 341.028C340.992 350.735 351.804 357.216 364.092 360.301L366.527 350.603ZM338.915 334.111C330.885 325.727 324.666 314.451 320.419 300.049L310.828 302.877C315.419 318.448 322.322 331.244 331.694 341.028L338.915 334.111ZM320.419 300.049C316.159 285.603 315.289 272.761 317.537 261.406L307.727 259.464C305.098 272.748 306.222 287.259 310.828 302.877L320.419 300.049ZM317.539 261.397C319.799 249.872 324.592 240.303 331.855 232.526L324.547 225.7C315.903 234.955 310.316 246.267 307.726 259.472L317.539 261.397ZM331.855 232.526C339.146 224.72 348.41 219.11 359.803 215.751L356.975 206.159C344.025 209.978 333.164 216.474 324.547 225.7L331.855 232.526ZM359.803 215.751C367.117 213.594 374.133 212.64 380.872 212.834L381.16 202.839C373.262 202.611 365.193 203.735 356.975 206.159L359.803 215.751ZM380.872 212.834C387.61 213.029 393.9 214.357 399.781 216.797L403.613 207.56C396.557 204.633 389.06 203.067 381.16 202.839L380.872 212.834ZM399.805 216.807C405.63 219.188 410.889 222.681 415.597 227.334L422.626 220.221C417.024 214.685 410.673 210.446 403.588 207.55L399.805 216.807ZM415.629 227.365C420.306 231.905 424.221 237.606 427.33 244.559L436.459 240.477C432.899 232.515 428.293 225.722 422.595 220.19L415.629 227.365Z" fill="#4EBE9D" fill-opacity="0.2" mask="url(#path-4-outside-1_729_244)"/>
</g>
<defs>
<filter id="filter0_f_729_244" x="0" y="8.6333" width="640.02" height="581.928" filterUnits="userSpaceOnUse" color-interpolation-filters="sRGB">
<feFlood flood-opacity="0" result="BackgroundImageFix"/>
<feBlend mode="normal" in="SourceGraphic" in2="BackgroundImageFix" result="shape"/>
<feGaussianBlur stdDeviation="2" result="effect1_foregroundBlur_729_244"/>
</filter>
<filter id="filter1_d_729_244" x="174.732" y="193.538" width="289.025" height="221.862" filterUnits="userSpaceOnUse" color-interpolation-filters="sRGB">
<feFlood flood-opacity="0" result="BackgroundImageFix"/>
<feColorMatrix in="SourceAlpha" type="matrix" values="0 0 0 0 0 0 0 0 0 0 0 0 0 0 0 0 0 0 127 0" result="hardAlpha"/>
<feOffset dy="4"/>
<feGaussianBlur stdDeviation="2"/>
<feComposite in2="hardAlpha" operator="out"/>
<feColorMatrix type="matrix" values="0 0 0 0 0 0 0 0 0 0 0 0 0 0 0 0 0 0 0.25 0"/>
<feBlend mode="normal" in2="BackgroundImageFix" result="effect1_dropShadow_729_244"/>
<feBlend mode="normal" in="SourceGraphic" in2="effect1_dropShadow_729_244" result="shape"/>
</filter>
<linearGradient id="paint0_linear_729_244" x1="320.009" y1="12.6333" x2="320.009" y2="586.561" gradientUnits="userSpaceOnUse">
<stop stop-color="#4EBE9D"/>
<stop offset="1" stop-color="#4EBE9D" stop-opacity="0"/>
</linearGradient>
<linearGradient id="paint1_linear_729_244" x1="319.5" y1="29" x2="319.5" y2="572" gradientUnits="userSpaceOnUse">
<stop stop-color="#121138"/>
<stop offset="1" stop-color="#121138" stop-opacity="0"/>
</linearGradient>
<linearGradient id="paint2_linear_729_244" x1="320" y1="538" x2="320" y2="50.5" gradientUnits="userSpaceOnUse">
<stop stop-color="#4EBE9D"/>
<stop offset="1" stop-opacity="0"/>
</linearGradient>
<radialGradient id="paint3_diamond_729_244" cx="0" cy="0" r="1" gradientUnits="userSpaceOnUse" gradientTransform="translate(319.5 300.5) rotate(-127.215) scale(182.703 192.124)">
<stop stop-color="white"/>
<stop offset="1" stop-opacity="0"/>
</radialGradient>
<linearGradient id="paint4_linear_729_244" x1="285.528" y1="183.902" x2="353.977" y2="416.02" gradientUnits="userSpaceOnUse">
<stop stop-color="white"/>
<stop offset="1" stop-color="white" stop-opacity="0"/>
</linearGradient>
</defs>
</svg>
